<svg width="1440" height="900" viewBox="0 0 1440 900" fill="#FFFFFF" xmlns="http://www.w3.org/2000/svg">
<path d="M440.876 59H97.124C93.9099 59.0044 90.8288 60.2515 88.5561 62.4677C86.2834 64.6839 85.0046 67.6885 85 70.8227V200.177C85.0045 203.311 86.2834 206.316 88.5561 208.532C90.8288 210.749 93.9099 211.996 97.124 212H440.876C444.09 211.996 447.171 210.749 449.444 208.532C451.717 206.316 452.995 203.311 453 200.177V70.8227C452.995 67.6885 451.717 64.6839 449.444 62.4677C447.171 60.2515 444.09 59.0044 440.876 59V59ZM451.574 200.177C451.57 202.943 450.442 205.594 448.437 207.55C446.431 209.506 443.712 210.606 440.876 210.609H97.124C94.2879 210.606 91.5689 209.506 89.5634 207.55C87.558 205.594 86.4298 202.943 86.4264 200.177V70.8227C86.4298 68.0571 87.558 65.4057 89.5634 63.45C91.5689 61.4944 94.2879 60.3943 97.124 60.3909H440.876C443.712 60.3943 446.431 61.4944 448.437 63.45C450.442 65.4057 451.57 68.0571 451.574 70.8227V200.177Z" fill="#3F3D56" fill-opacity="0.49"/>
<path d="M906.876 136H563.124C559.91 136.004 556.829 137.251 554.556 139.468C552.283 141.684 551.005 144.689 551 147.823V277.177C551.005 280.311 552.283 283.316 554.556 285.532C556.829 287.749 559.91 288.996 563.124 289H906.876C910.09 288.996 913.171 287.749 915.444 285.532C917.717 283.316 918.995 280.311 919 277.177V147.823C918.995 144.689 917.717 141.684 915.444 139.468C913.171 137.251 910.09 136.004 906.876 136V136ZM917.574 277.177C917.57 279.943 916.442 282.594 914.437 284.55C912.431 286.506 909.712 287.606 906.876 287.609H563.124C560.288 287.606 557.569 286.506 555.563 284.55C553.558 282.594 552.43 279.943 552.426 277.177V147.823C552.43 145.057 553.558 142.406 555.563 140.45C557.569 138.494 560.288 137.394 563.124 137.391H906.876C909.712 137.394 912.431 138.494 914.437 140.45C916.442 142.406 917.57 145.057 917.574 147.823V277.177Z" fill="#3F3D56" fill-opacity="0.49"/>
<path d="M363.876 350H20.124C16.9099 350.004 13.8288 351.251 11.5561 353.468C9.28336 355.684 8.00455 358.689 8 361.823V491.177C8.00455 494.311 9.28336 497.316 11.5561 499.532C13.8288 501.749 16.9099 502.996 20.124 503H363.876C367.09 502.996 370.171 501.749 372.444 499.532C374.717 497.316 375.995 494.311 376 491.177V361.823C375.995 358.689 374.717 355.684 372.444 353.468C370.171 351.251 367.09 350.004 363.876 350V350ZM374.574 491.177C374.57 493.943 373.442 496.594 371.437 498.55C369.431 500.506 366.712 501.606 363.876 501.609H20.124C17.2879 501.606 14.5689 500.506 12.5634 498.55C10.558 496.594 9.42981 493.943 9.42636 491.177V361.823C9.42981 359.057 10.558 356.406 12.5634 354.45C14.5689 352.494 17.2879 351.394 20.124 351.391H363.876C366.712 351.394 369.431 352.494 371.437 354.45C373.442 356.406 374.57 359.057 374.574 361.823V491.177Z" fill="#3F3D56" fill-opacity="0.49"/>
<path d="M879.876 380H536.124C532.91 380.004 529.829 381.251 527.556 383.468C525.283 385.684 524.005 388.689 524 391.823V521.177C524.005 524.311 525.283 527.316 527.556 529.532C529.829 531.749 532.91 532.996 536.124 533H879.876C883.09 532.996 886.171 531.749 888.444 529.532C890.717 527.316 891.995 524.311 892 521.177V391.823C891.995 388.689 890.717 385.684 888.444 383.468C886.171 381.251 883.09 380.004 879.876 380V380ZM890.574 521.177C890.57 523.943 889.442 526.594 887.437 528.55C885.431 530.506 882.712 531.606 879.876 531.609H536.124C533.288 531.606 530.569 530.506 528.563 528.55C526.558 526.594 525.43 523.943 525.426 521.177V391.823C525.43 389.057 526.558 386.406 528.563 384.45C530.569 382.494 533.288 381.394 536.124 381.391H879.876C882.712 381.394 885.431 382.494 887.437 384.45C889.442 386.406 890.57 389.057 890.574 391.823V521.177Z" fill="#3F3D56" fill-opacity="0.49"/>
<path d="M484.876 622H141.124C137.91 622.004 134.829 623.251 132.556 625.468C130.283 627.684 129.005 630.689 129 633.823V763.177C129.005 766.311 130.283 769.316 132.556 771.532C134.829 773.749 137.91 774.996 141.124 775H484.876C488.09 774.996 491.171 773.749 493.444 771.532C495.717 769.316 496.995 766.311 497 763.177V633.823C496.995 630.689 495.717 627.684 493.444 625.468C491.171 623.251 488.09 622.004 484.876 622V622ZM495.574 763.177C495.57 765.943 494.442 768.594 492.437 770.55C490.431 772.506 487.712 773.606 484.876 773.609H141.124C138.288 773.606 135.569 772.506 133.563 770.55C131.558 768.594 130.43 765.943 130.426 763.177V633.823C130.43 631.057 131.558 628.406 133.563 626.45C135.569 624.494 138.288 623.394 141.124 623.391H484.876C487.712 623.394 490.431 624.494 492.437 626.45C494.442 628.406 495.57 631.057 495.574 633.823V763.177Z" fill="#3F3D56" fill-opacity="0.49"/>
<path d="M966.876 675H623.124C619.91 675.004 616.829 676.251 614.556 678.468C612.283 680.684 611.005 683.689 611 686.823V816.177C611.005 819.311 612.283 822.316 614.556 824.532C616.829 826.749 619.91 827.996 623.124 828H966.876C970.09 827.996 973.171 826.749 975.444 824.532C977.717 822.316 978.995 819.311 979 816.177V686.823C978.995 683.689 977.717 680.684 975.444 678.468C973.171 676.251 970.09 675.004 966.876 675V675ZM977.574 816.177C977.57 818.943 976.442 821.594 974.437 823.55C972.431 825.506 969.712 826.606 966.876 826.609H623.124C620.288 826.606 617.569 825.506 615.563 823.55C613.558 821.594 612.43 818.943 612.426 816.177V686.823C612.43 684.057 613.558 681.406 615.563 679.45C617.569 677.494 620.288 676.394 623.124 676.391H966.876C969.712 676.394 972.431 677.494 974.437 679.45C976.442 681.406 977.57 684.057 977.574 686.823V816.177Z" fill="#3F3D56" fill-opacity="0.49"/>
<path d="M1406.88 23H1063.12C1059.91 23.0044 1056.83 24.2515 1054.56 26.4677C1052.28 28.6839 1051 31.6885 1051 34.8227V164.177C1051 167.311 1052.28 170.316 1054.56 172.532C1056.83 174.749 1059.91 175.996 1063.12 176H1406.88C1410.09 175.996 1413.17 174.749 1415.44 172.532C1417.72 170.316 1419 167.311 1419 164.177V34.8227C1419 31.6885 1417.72 28.6839 1415.44 26.4677C1413.17 24.2515 1410.09 23.0044 1406.88 23V23ZM1417.57 164.177C1417.57 166.943 1416.44 169.594 1414.44 171.55C1412.43 173.506 1409.71 174.606 1406.88 174.609H1063.12C1060.29 174.606 1057.57 173.506 1055.56 171.55C1053.56 169.594 1052.43 166.943 1052.43 164.177V34.8227C1052.43 32.0571 1053.56 29.4057 1055.56 27.45C1057.57 25.4944 1060.29 24.3943 1063.12 24.3909H1406.88C1409.71 24.3943 1412.43 25.4944 1414.44 27.45C1416.44 29.4057 1417.57 32.0571 1417.57 34.8227V164.177Z" fill="#3F3D56" fill-opacity="0.49"/>
<path d="M1319.88 252H976.124C972.91 252.004 969.829 253.251 967.556 255.468C965.283 257.684 964.005 260.689 964 263.823V393.177C964.005 396.311 965.283 399.316 967.556 401.532C969.829 403.749 972.91 404.996 976.124 405H1319.88C1323.09 404.996 1326.17 403.749 1328.44 401.532C1330.72 399.316 1332 396.311 1332 393.177V263.823C1332 260.689 1330.72 257.684 1328.44 255.468C1326.17 253.251 1323.09 252.004 1319.88 252V252ZM1330.57 393.177C1330.57 395.943 1329.44 398.594 1327.44 400.55C1325.43 402.506 1322.71 403.606 1319.88 403.609H976.124C973.288 403.606 970.569 402.506 968.563 400.55C966.558 398.594 965.43 395.943 965.426 393.177V263.823C965.43 261.057 966.558 258.406 968.563 256.45C970.569 254.494 973.288 253.394 976.124 253.391H1319.88C1322.71 253.394 1325.43 254.494 1327.44 256.45C1329.44 258.406 1330.57 261.057 1330.57 263.823V393.177Z" fill="#3F3D56" fill-opacity="0.49"/>
<path d="M1389.88 555H1046.12C1042.91 555.004 1039.83 556.251 1037.56 558.468C1035.28 560.684 1034 563.689 1034 566.823V696.177C1034 699.311 1035.28 702.316 1037.56 704.532C1039.83 706.749 1042.91 707.996 1046.12 708H1389.88C1393.09 707.996 1396.17 706.749 1398.44 704.532C1400.72 702.316 1402 699.311 1402 696.177V566.823C1402 563.689 1400.72 560.684 1398.44 558.468C1396.17 556.251 1393.09 555.004 1389.88 555V555ZM1400.57 696.177C1400.57 698.943 1399.44 701.594 1397.44 703.55C1395.43 705.506 1392.71 706.606 1389.88 706.609H1046.12C1043.29 706.606 1040.57 705.506 1038.56 703.55C1036.56 701.594 1035.43 698.943 1035.43 696.177V566.823C1035.43 564.057 1036.56 561.406 1038.56 559.45C1040.57 557.494 1043.29 556.394 1046.12 556.391H1389.88C1392.71 556.394 1395.43 557.494 1397.44 559.45C1399.44 561.406 1400.57 564.057 1400.57 566.823V696.177Z" fill="#3F3D56" fill-opacity="0.49"/>
<path d="M159.5 176C151.292 176 143.268 173.625 136.444 169.175C129.619 164.724 124.3 158.399 121.159 150.999C118.018 143.598 117.196 135.455 118.797 127.599C120.399 119.743 124.351 112.526 130.155 106.862C135.959 101.198 143.354 97.3409 151.404 95.7782C159.454 94.2155 167.798 95.0175 175.381 98.0829C182.964 101.148 189.446 106.339 194.006 112.999C198.566 119.66 201 127.49 201 135.5C200.988 146.238 196.611 156.532 188.831 164.124C181.051 171.717 170.503 175.988 159.5 176V176ZM159.5 96.3966C151.575 96.3966 143.828 98.6899 137.239 102.987C130.65 107.283 125.514 113.391 122.481 120.536C119.448 127.681 118.655 135.543 120.201 143.129C121.747 150.714 125.563 157.682 131.167 163.15C136.771 168.619 143.91 172.343 151.683 173.852C159.456 175.361 167.512 174.587 174.834 171.627C182.155 168.667 188.413 163.655 192.816 157.225C197.219 150.794 199.569 143.234 199.569 135.5C199.557 125.133 195.332 115.193 187.82 107.863C180.308 100.532 170.123 96.4083 159.5 96.3966Z" fill="#3F3D56" fill-opacity="0.49"/>
<path d="M625.5 253C617.292 253 609.268 250.625 602.444 246.175C595.619 241.724 590.3 235.399 587.159 227.999C584.018 220.598 583.196 212.455 584.797 204.599C586.399 196.743 590.351 189.526 596.155 183.862C601.959 178.198 609.354 174.341 617.404 172.778C625.454 171.216 633.798 172.018 641.381 175.083C648.964 178.148 655.446 183.339 660.006 189.999C664.566 196.66 667 204.49 667 212.5C666.988 223.238 662.611 233.532 654.831 241.124C647.051 248.717 636.503 252.988 625.5 253V253ZM625.5 173.397C617.575 173.397 609.828 175.69 603.239 179.987C596.65 184.283 591.514 190.391 588.481 197.536C585.448 204.681 584.655 212.543 586.201 220.129C587.747 227.714 591.563 234.682 597.167 240.15C602.771 245.619 609.91 249.343 617.683 250.852C625.456 252.361 633.512 251.587 640.834 248.627C648.155 245.667 654.413 240.655 658.816 234.225C663.219 227.794 665.569 220.234 665.569 212.5C665.557 202.133 661.332 192.193 653.82 184.863C646.308 177.532 636.123 173.408 625.5 173.397Z" fill="#3F3D56" fill-opacity="0.49"/>
<path d="M82.5 467C74.2921 467 66.2685 464.625 59.4438 460.175C52.6192 455.724 47.3001 449.399 44.159 441.999C41.018 434.598 40.1961 426.455 41.7974 418.599C43.3987 410.743 47.3512 403.526 53.1551 397.862C58.959 392.198 66.3536 388.341 74.4038 386.778C82.454 385.216 90.7982 386.018 98.3814 389.083C105.964 392.148 112.446 397.339 117.006 403.999C121.566 410.66 124 418.49 124 426.5C123.988 437.238 119.611 447.532 111.831 455.124C104.051 462.717 93.5027 466.988 82.5 467V467ZM82.5 387.397C74.5751 387.397 66.8282 389.69 60.2389 393.987C53.6496 398.283 48.5139 404.391 45.4811 411.536C42.4484 418.681 41.6549 426.543 43.2009 434.129C44.747 441.714 48.5633 448.682 54.167 454.15C59.7707 459.619 66.9103 463.343 74.683 464.852C82.4556 466.361 90.5121 465.587 97.8337 462.627C105.155 459.667 111.413 454.655 115.816 448.225C120.219 441.794 122.569 434.234 122.569 426.5C122.557 416.133 118.332 406.193 110.82 398.863C103.308 391.532 93.1233 387.408 82.5 387.397Z" fill="#3F3D56" fill-opacity="0.49"/>
<path d="M598.5 497C590.292 497 582.268 494.625 575.444 490.175C568.619 485.724 563.3 479.399 560.159 471.999C557.018 464.598 556.196 456.455 557.797 448.599C559.399 440.743 563.351 433.526 569.155 427.862C574.959 422.198 582.354 418.341 590.404 416.778C598.454 415.216 606.798 416.018 614.381 419.083C621.964 422.148 628.446 427.339 633.006 433.999C637.566 440.66 640 448.49 640 456.5C639.988 467.238 635.611 477.532 627.831 485.124C620.051 492.717 609.503 496.988 598.5 497V497ZM598.5 417.397C590.575 417.397 582.828 419.69 576.239 423.987C569.65 428.283 564.514 434.391 561.481 441.536C558.448 448.681 557.655 456.543 559.201 464.129C560.747 471.714 564.563 478.682 570.167 484.15C575.771 489.619 582.91 493.343 590.683 494.852C598.456 496.361 606.512 495.587 613.834 492.627C621.155 489.667 627.413 484.655 631.816 478.225C636.219 471.794 638.569 464.234 638.569 456.5C638.557 446.133 634.332 436.193 626.82 428.863C619.308 421.532 609.123 417.408 598.5 417.397Z" fill="#3F3D56" fill-opacity="0.49"/>
<path d="M203.5 739C195.292 739 187.268 736.625 180.444 732.175C173.619 727.724 168.3 721.399 165.159 713.999C162.018 706.598 161.196 698.455 162.797 690.599C164.399 682.743 168.351 675.526 174.155 669.862C179.959 664.198 187.354 660.341 195.404 658.778C203.454 657.216 211.798 658.018 219.381 661.083C226.964 664.148 233.446 669.339 238.006 675.999C242.566 682.66 245 690.49 245 698.5C244.988 709.238 240.611 719.532 232.831 727.124C225.051 734.717 214.503 738.988 203.5 739V739ZM203.5 659.397C195.575 659.397 187.828 661.69 181.239 665.987C174.65 670.283 169.514 676.391 166.481 683.536C163.448 690.681 162.655 698.543 164.201 706.129C165.747 713.714 169.563 720.682 175.167 726.15C180.771 731.619 187.91 735.343 195.683 736.852C203.456 738.361 211.512 737.587 218.834 734.627C226.155 731.667 232.413 726.655 236.816 720.225C241.219 713.794 243.569 706.234 243.569 698.5C243.557 688.133 239.332 678.193 231.82 670.863C224.308 663.532 214.123 659.408 203.5 659.397Z" fill="#3F3D56" fill-opacity="0.49"/>
<path d="M685.5 792C677.292 792 669.268 789.625 662.444 785.175C655.619 780.724 650.3 774.399 647.159 766.999C644.018 759.598 643.196 751.455 644.797 743.599C646.399 735.743 650.351 728.526 656.155 722.862C661.959 717.198 669.354 713.341 677.404 711.778C685.454 710.216 693.798 711.018 701.381 714.083C708.964 717.148 715.446 722.339 720.006 728.999C724.566 735.66 727 743.49 727 751.5C726.988 762.238 722.611 772.532 714.831 780.124C707.051 787.717 696.503 791.988 685.5 792V792ZM685.5 712.397C677.575 712.397 669.828 714.69 663.239 718.987C656.65 723.283 651.514 729.391 648.481 736.536C645.448 743.681 644.655 751.543 646.201 759.129C647.747 766.714 651.563 773.682 657.167 779.15C662.771 784.619 669.91 788.343 677.683 789.852C685.456 791.361 693.512 790.587 700.834 787.627C708.155 784.667 714.413 779.655 718.816 773.225C723.219 766.794 725.569 759.234 725.569 751.5C725.557 741.133 721.332 731.193 713.82 723.863C706.308 716.532 696.123 712.408 685.5 712.397Z" fill="#3F3D56" fill-opacity="0.49"/>
<path d="M1125.5 140C1117.29 140 1109.27 137.625 1102.44 133.175C1095.62 128.724 1090.3 122.399 1087.16 114.999C1084.02 107.598 1083.2 99.4551 1084.8 91.5989C1086.4 83.7426 1090.35 76.5262 1096.16 70.8622C1101.96 65.1982 1109.35 61.3409 1117.4 59.7782C1125.45 58.2155 1133.8 59.0175 1141.38 62.0829C1148.96 65.1482 1155.45 70.3392 1160.01 76.9994C1164.57 83.6596 1167 91.4899 1167 99.5C1166.99 110.238 1162.61 120.532 1154.83 128.124C1147.05 135.717 1136.5 139.988 1125.5 140V140ZM1125.5 60.3966C1117.58 60.3966 1109.83 62.6899 1103.24 66.9867C1096.65 71.2834 1091.51 77.3906 1088.48 84.5358C1085.45 91.681 1084.65 99.5434 1086.2 107.129C1087.75 114.714 1091.56 121.682 1097.17 127.15C1102.77 132.619 1109.91 136.343 1117.68 137.852C1125.46 139.361 1133.51 138.587 1140.83 135.627C1148.16 132.667 1154.41 127.655 1158.82 121.225C1163.22 114.794 1165.57 107.234 1165.57 99.5C1165.56 89.1327 1161.33 79.1935 1153.82 71.8627C1146.31 64.5319 1136.12 60.4083 1125.5 60.3966Z" fill="#3F3D56" fill-opacity="0.49"/>
<path d="M1038.5 369C1030.29 369 1022.27 366.625 1015.44 362.175C1008.62 357.724 1003.3 351.399 1000.16 343.999C997.018 336.598 996.196 328.455 997.797 320.599C999.399 312.743 1003.35 305.526 1009.16 299.862C1014.96 294.198 1022.35 290.341 1030.4 288.778C1038.45 287.216 1046.8 288.018 1054.38 291.083C1061.96 294.148 1068.45 299.339 1073.01 305.999C1077.57 312.66 1080 320.49 1080 328.5C1079.99 339.238 1075.61 349.532 1067.83 357.124C1060.05 364.717 1049.5 368.988 1038.5 369V369ZM1038.5 289.397C1030.58 289.397 1022.83 291.69 1016.24 295.987C1009.65 300.283 1004.51 306.391 1001.48 313.536C998.448 320.681 997.655 328.543 999.201 336.129C1000.75 343.714 1004.56 350.682 1010.17 356.15C1015.77 361.619 1022.91 365.343 1030.68 366.852C1038.46 368.361 1046.51 367.587 1053.83 364.627C1061.16 361.667 1067.41 356.655 1071.82 350.225C1076.22 343.794 1078.57 336.234 1078.57 328.5C1078.56 318.133 1074.33 308.193 1066.82 300.863C1059.31 293.532 1049.12 289.408 1038.5 289.397Z" fill="#3F3D56" fill-opacity="0.49"/>
<path d="M1108.5 672C1100.29 672 1092.27 669.625 1085.44 665.175C1078.62 660.724 1073.3 654.399 1070.16 646.999C1067.02 639.598 1066.2 631.455 1067.8 623.599C1069.4 615.743 1073.35 608.526 1079.16 602.862C1084.96 597.198 1092.35 593.341 1100.4 591.778C1108.45 590.216 1116.8 591.018 1124.38 594.083C1131.96 597.148 1138.45 602.339 1143.01 608.999C1147.57 615.66 1150 623.49 1150 631.5C1149.99 642.238 1145.61 652.532 1137.83 660.124C1130.05 667.717 1119.5 671.988 1108.5 672V672ZM1108.5 592.397C1100.58 592.397 1092.83 594.69 1086.24 598.987C1079.65 603.283 1074.51 609.391 1071.48 616.536C1068.45 623.681 1067.65 631.543 1069.2 639.129C1070.75 646.714 1074.56 653.682 1080.17 659.15C1085.77 664.619 1092.91 668.343 1100.68 669.852C1108.46 671.361 1116.51 670.587 1123.83 667.627C1131.16 664.667 1137.41 659.655 1141.82 653.225C1146.22 646.794 1148.57 639.234 1148.57 631.5C1148.56 621.133 1144.33 611.193 1136.82 603.863C1129.31 596.532 1119.12 592.408 1108.5 592.397Z" fill="#3F3D56" fill-opacity="0.49"/>
<path d="M410.113 110H245.887C243.592 110.001 241.386 110.852 239.732 112.375C238.078 113.897 237.104 115.973 237.015 118.167C237.003 118.277 236.998 118.389 237.001 118.5C237.004 120.753 237.941 122.914 239.607 124.507C241.273 126.1 243.531 126.997 245.887 127H410.113C412.47 127 414.731 126.104 416.397 124.51C418.064 122.916 419 120.754 419 118.5C419 116.246 418.064 114.084 416.397 112.49C414.731 110.896 412.47 110 410.113 110Z" fill="#2B7A78" fill-opacity="0.49"/>
<path d="M876.113 187H711.887C709.592 187.001 707.386 187.852 705.732 189.375C704.078 190.897 703.104 192.973 703.015 195.167C703.003 195.277 702.998 195.389 703.001 195.5C703.004 197.753 703.941 199.914 705.607 201.507C707.273 203.1 709.531 203.997 711.887 204H876.113C878.47 204 880.731 203.104 882.397 201.51C884.064 199.916 885 197.754 885 195.5C885 193.246 884.064 191.084 882.397 189.49C880.731 187.896 878.47 187 876.113 187Z" fill="#2B7A78" fill-opacity="0.49"/>
<path d="M333.113 401H168.887C166.592 401.001 164.386 401.852 162.732 403.375C161.078 404.897 160.104 406.973 160.015 409.167C160.003 409.277 159.998 409.389 160.001 409.5C160.004 411.753 160.941 413.914 162.607 415.507C164.273 417.1 166.531 417.997 168.887 418H333.113C335.47 418 337.731 417.104 339.397 415.51C341.064 413.916 342 411.754 342 409.5C342 407.246 341.064 405.084 339.397 403.49C337.731 401.896 335.47 401 333.113 401Z" fill="#2B7A78" fill-opacity="0.49"/>
<path d="M849.113 431H684.887C682.592 431.001 680.386 431.852 678.732 433.375C677.078 434.897 676.104 436.973 676.015 439.167C676.003 439.277 675.998 439.389 676.001 439.5C676.004 441.753 676.941 443.914 678.607 445.507C680.273 447.1 682.531 447.997 684.887 448H849.113C851.47 448 853.731 447.104 855.397 445.51C857.064 443.916 858 441.754 858 439.5C858 437.246 857.064 435.084 855.397 433.49C853.731 431.896 851.47 431 849.113 431Z" fill="#2B7A78" fill-opacity="0.49"/>
<path d="M454.113 673H289.887C287.592 673.001 285.386 673.852 283.732 675.375C282.078 676.897 281.104 678.973 281.015 681.167C281.003 681.277 280.998 681.389 281.001 681.5C281.004 683.753 281.941 685.914 283.607 687.507C285.273 689.1 287.531 689.997 289.887 690H454.113C456.47 690 458.731 689.104 460.397 687.51C462.064 685.916 463 683.754 463 681.5C463 679.246 462.064 677.084 460.397 675.49C458.731 673.896 456.47 673 454.113 673Z" fill="#2B7A78" fill-opacity="0.49"/>
<path d="M936.113 726H771.887C769.592 726.001 767.386 726.852 765.732 728.375C764.078 729.897 763.104 731.973 763.015 734.167C763.003 734.277 762.998 734.389 763.001 734.5C763.004 736.753 763.941 738.914 765.607 740.507C767.273 742.1 769.531 742.997 771.887 743H936.113C938.47 743 940.731 742.104 942.397 740.51C944.064 738.916 945 736.754 945 734.5C945 732.246 944.064 730.084 942.397 728.49C940.731 726.896 938.47 726 936.113 726Z" fill="#2B7A78" fill-opacity="0.49"/>
<path d="M1376.11 74H1211.89C1209.59 74.0013 1207.39 74.8523 1205.73 76.3747C1204.08 77.8972 1203.1 79.9729 1203.01 82.1668C1203 82.2775 1203 82.3888 1203 82.5C1203 84.7534 1203.94 86.9135 1205.61 88.5069C1207.27 90.1003 1209.53 90.9968 1211.89 91H1376.11C1378.47 91 1380.73 90.1045 1382.4 88.5104C1384.06 86.9163 1385 84.7543 1385 82.5C1385 80.2457 1384.06 78.0837 1382.4 76.4896C1380.73 74.8955 1378.47 74 1376.11 74Z" fill="#2B7A78" fill-opacity="0.49"/>
<path d="M1289.11 303H1124.89C1122.59 303.001 1120.39 303.852 1118.73 305.375C1117.08 306.897 1116.1 308.973 1116.01 311.167C1116 311.277 1116 311.389 1116 311.5C1116 313.753 1116.94 315.914 1118.61 317.507C1120.27 319.1 1122.53 319.997 1124.89 320H1289.11C1291.47 320 1293.73 319.104 1295.4 317.51C1297.06 315.916 1298 313.754 1298 311.5C1298 309.246 1297.06 307.084 1295.4 305.49C1293.73 303.896 1291.47 303 1289.11 303Z" fill="#2B7A78" fill-opacity="0.49"/>
<path d="M1359.11 606H1194.89C1192.59 606.001 1190.39 606.852 1188.73 608.375C1187.08 609.897 1186.1 611.973 1186.01 614.167C1186 614.277 1186 614.389 1186 614.5C1186 616.753 1186.94 618.914 1188.61 620.507C1190.27 622.1 1192.53 622.997 1194.89 623H1359.11C1361.47 623 1363.73 622.104 1365.4 620.51C1367.06 618.916 1368 616.754 1368 614.5C1368 612.246 1367.06 610.084 1365.4 608.49C1363.73 606.896 1361.47 606 1359.11 606Z" fill="#2B7A78" fill-opacity="0.49"/>
<path d="M410.113 144H245.887C243.592 144.001 241.386 144.852 239.732 146.375C238.078 147.897 237.104 149.973 237.015 152.167C237.003 152.277 236.998 152.389 237.001 152.5C237.004 154.753 237.941 156.914 239.607 158.507C241.273 160.1 243.531 160.997 245.887 161H410.113C412.47 161 414.731 160.104 416.397 158.51C418.064 156.916 419 154.754 419 152.5C419 150.246 418.064 148.084 416.397 146.49C414.731 144.896 412.47 144 410.113 144V144Z" fill="#2B7A78" fill-opacity="0.49"/>
<path d="M876.113 221H711.887C709.592 221.001 707.386 221.852 705.732 223.375C704.078 224.897 703.104 226.973 703.015 229.167C703.003 229.277 702.998 229.389 703.001 229.5C703.004 231.753 703.941 233.914 705.607 235.507C707.273 237.1 709.531 237.997 711.887 238H876.113C878.47 238 880.731 237.104 882.397 235.51C884.064 233.916 885 231.754 885 229.5C885 227.246 884.064 225.084 882.397 223.49C880.731 221.896 878.47 221 876.113 221V221Z" fill="#2B7A78" fill-opacity="0.49"/>
<path d="M333.113 435H168.887C166.592 435.001 164.386 435.852 162.732 437.375C161.078 438.897 160.104 440.973 160.015 443.167C160.003 443.277 159.998 443.389 160.001 443.5C160.004 445.753 160.941 447.914 162.607 449.507C164.273 451.1 166.531 451.997 168.887 452H333.113C335.47 452 337.731 451.104 339.397 449.51C341.064 447.916 342 445.754 342 443.5C342 441.246 341.064 439.084 339.397 437.49C337.731 435.896 335.47 435 333.113 435V435Z" fill="#2B7A78" fill-opacity="0.49"/>
<path d="M849.113 465H684.887C682.592 465.001 680.386 465.852 678.732 467.375C677.078 468.897 676.104 470.973 676.015 473.167C676.003 473.277 675.998 473.389 676.001 473.5C676.004 475.753 676.941 477.914 678.607 479.507C680.273 481.1 682.531 481.997 684.887 482H849.113C851.47 482 853.731 481.104 855.397 479.51C857.064 477.916 858 475.754 858 473.5C858 471.246 857.064 469.084 855.397 467.49C853.731 465.896 851.47 465 849.113 465V465Z" fill="#2B7A78" fill-opacity="0.49"/>
<path d="M454.113 707H289.887C287.592 707.001 285.386 707.852 283.732 709.375C282.078 710.897 281.104 712.973 281.015 715.167C281.003 715.277 280.998 715.389 281.001 715.5C281.004 717.753 281.941 719.914 283.607 721.507C285.273 723.1 287.531 723.997 289.887 724H454.113C456.47 724 458.731 723.104 460.397 721.51C462.064 719.916 463 717.754 463 715.5C463 713.246 462.064 711.084 460.397 709.49C458.731 707.896 456.47 707 454.113 707V707Z" fill="#2B7A78" fill-opacity="0.49"/>
<path d="M936.113 760H771.887C769.592 760.001 767.386 760.852 765.732 762.375C764.078 763.897 763.104 765.973 763.015 768.167C763.003 768.277 762.998 768.389 763.001 768.5C763.004 770.753 763.941 772.914 765.607 774.507C767.273 776.1 769.531 776.997 771.887 777H936.113C938.47 777 940.731 776.104 942.397 774.51C944.064 772.916 945 770.754 945 768.5C945 766.246 944.064 764.084 942.397 762.49C940.731 760.896 938.47 760 936.113 760V760Z" fill="#2B7A78" fill-opacity="0.49"/>
<path d="M1376.11 108H1211.89C1209.59 108.001 1207.39 108.852 1205.73 110.375C1204.08 111.897 1203.1 113.973 1203.01 116.167C1203 116.277 1203 116.389 1203 116.5C1203 118.753 1203.94 120.914 1205.61 122.507C1207.27 124.1 1209.53 124.997 1211.89 125H1376.11C1378.47 125 1380.73 124.104 1382.4 122.51C1384.06 120.916 1385 118.754 1385 116.5C1385 114.246 1384.06 112.084 1382.4 110.49C1380.73 108.896 1378.47 108 1376.11 108V108Z" fill="#2B7A78" fill-opacity="0.49"/>
<path d="M1289.11 337H1124.89C1122.59 337.001 1120.39 337.852 1118.73 339.375C1117.08 340.897 1116.1 342.973 1116.01 345.167C1116 345.277 1116 345.389 1116 345.5C1116 347.753 1116.94 349.914 1118.61 351.507C1120.27 353.1 1122.53 353.997 1124.89 354H1289.11C1291.47 354 1293.73 353.104 1295.4 351.51C1297.06 349.916 1298 347.754 1298 345.5C1298 343.246 1297.06 341.084 1295.4 339.49C1293.73 337.896 1291.47 337 1289.11 337V337Z" fill="#2B7A78" fill-opacity="0.49"/>
<path d="M1359.11 640H1194.89C1192.59 640.001 1190.39 640.852 1188.73 642.375C1187.08 643.897 1186.1 645.973 1186.01 648.167C1186 648.277 1186 648.389 1186 648.5C1186 650.753 1186.94 652.914 1188.61 654.507C1190.27 656.1 1192.53 656.997 1194.89 657H1359.11C1361.47 657 1363.73 656.104 1365.4 654.51C1367.06 652.916 1368 650.754 1368 648.5C1368 646.246 1367.06 644.084 1365.4 642.49C1363.73 640.896 1361.47 640 1359.11 640V640Z" fill="#2B7A78" fill-opacity="0.49"/>
<path d="M155.224 153C154.082 153.002 152.971 152.639 152.057 151.964L152.001 151.922L140.076 142.932C139.523 142.516 139.06 141.996 138.712 141.403C138.363 140.81 138.137 140.155 138.046 139.476C137.955 138.797 138 138.107 138.18 137.445C138.359 136.783 138.669 136.162 139.093 135.619C139.516 135.075 140.043 134.618 140.646 134.275C141.248 133.932 141.913 133.71 142.603 133.62C143.292 133.53 143.993 133.575 144.666 133.751C145.338 133.928 145.968 134.234 146.52 134.65L154.244 140.482L172.497 117.042C172.921 116.499 173.449 116.043 174.051 115.7C174.653 115.357 175.318 115.135 176.008 115.045C176.698 114.955 177.399 115 178.071 115.177C178.743 115.354 179.373 115.66 179.925 116.077L179.812 116.229L179.928 116.079C181.042 116.922 181.771 118.165 181.954 119.537C182.138 120.908 181.762 122.295 180.909 123.393L159.439 150.964C158.942 151.599 158.304 152.114 157.573 152.467C156.842 152.82 156.038 153.002 155.224 153V153Z" fill="#2B7A78" fill-opacity="0.49"/>
<path d="M621.224 230C620.082 230.002 618.971 229.639 618.057 228.964L618.001 228.922L606.076 219.932C605.523 219.516 605.06 218.996 604.712 218.403C604.363 217.81 604.137 217.155 604.046 216.476C603.955 215.797 604 215.107 604.18 214.445C604.359 213.783 604.669 213.162 605.093 212.619C605.516 212.075 606.043 211.618 606.646 211.275C607.248 210.932 607.913 210.71 608.603 210.62C609.292 210.53 609.993 210.575 610.666 210.751C611.338 210.928 611.968 211.234 612.52 211.65L620.244 217.482L638.497 194.042C638.921 193.499 639.449 193.043 640.051 192.7C640.653 192.357 641.318 192.135 642.008 192.045C642.698 191.955 643.399 192 644.071 192.177C644.743 192.354 645.373 192.66 645.925 193.077L645.812 193.229L645.928 193.079C647.042 193.922 647.771 195.165 647.954 196.537C648.138 197.908 647.762 199.295 646.909 200.393L625.439 227.964C624.942 228.599 624.304 229.114 623.573 229.467C622.842 229.82 622.038 230.002 621.224 230V230Z" fill="#2B7A78" fill-opacity="0.49"/>
<path d="M78.2237 444C77.0821 444.002 75.9707 443.639 75.0572 442.964L75.0006 442.922L63.0757 433.932C62.5235 433.516 62.0599 432.996 61.7117 432.403C61.3634 431.81 61.1371 431.155 61.0458 430.476C60.9545 429.797 61 429.107 61.1796 428.445C61.3591 427.783 61.6694 427.162 62.0925 426.619C62.5157 426.075 63.0435 425.618 63.6457 425.275C64.248 424.932 64.913 424.71 65.6027 424.62C66.2924 424.53 66.9934 424.575 67.6655 424.751C68.3377 424.928 68.9679 425.234 69.5202 425.65L77.2442 431.482L95.4973 408.042C95.9206 407.499 96.4485 407.043 97.0509 406.7C97.6533 406.357 98.3184 406.135 99.0082 406.045C99.6979 405.955 100.399 406 101.071 406.177C101.743 406.354 102.373 406.66 102.925 407.077L102.812 407.229L102.928 407.079C104.042 407.922 104.771 409.165 104.954 410.537C105.138 411.908 104.762 413.295 103.909 414.393L82.4387 441.964C81.9421 442.599 81.3036 443.114 80.5726 443.467C79.8417 443.82 79.0379 444.002 78.2237 444V444Z" fill="#2B7A78" fill-opacity="0.49"/>
<path d="M594.224 474C593.082 474.002 591.971 473.639 591.057 472.964L591.001 472.922L579.076 463.932C578.523 463.516 578.06 462.996 577.712 462.403C577.363 461.81 577.137 461.155 577.046 460.476C576.955 459.797 577 459.107 577.18 458.445C577.359 457.783 577.669 457.162 578.093 456.619C578.516 456.075 579.043 455.618 579.646 455.275C580.248 454.932 580.913 454.71 581.603 454.62C582.292 454.53 582.993 454.575 583.666 454.751C584.338 454.928 584.968 455.234 585.52 455.65L593.244 461.482L611.497 438.042C611.921 437.499 612.449 437.043 613.051 436.7C613.653 436.357 614.318 436.135 615.008 436.045C615.698 435.955 616.399 436 617.071 436.177C617.743 436.354 618.373 436.66 618.925 437.077L618.812 437.229L618.928 437.079C620.042 437.922 620.771 439.165 620.954 440.537C621.138 441.908 620.762 443.295 619.909 444.393L598.439 471.964C597.942 472.599 597.304 473.114 596.573 473.467C595.842 473.82 595.038 474.002 594.224 474V474Z" fill="#2B7A78" fill-opacity="0.49"/>
<path d="M199.224 716C198.082 716.002 196.971 715.639 196.057 714.964L196.001 714.922L184.076 705.932C183.523 705.516 183.06 704.996 182.712 704.403C182.363 703.81 182.137 703.155 182.046 702.476C181.955 701.797 182 701.107 182.18 700.445C182.359 699.783 182.669 699.162 183.093 698.619C183.516 698.075 184.043 697.618 184.646 697.275C185.248 696.932 185.913 696.71 186.603 696.62C187.292 696.53 187.993 696.575 188.666 696.751C189.338 696.928 189.968 697.234 190.52 697.65L198.244 703.482L216.497 680.042C216.921 679.499 217.449 679.043 218.051 678.7C218.653 678.357 219.318 678.135 220.008 678.045C220.698 677.955 221.399 678 222.071 678.177C222.743 678.354 223.373 678.66 223.925 679.077L223.812 679.229L223.928 679.079C225.042 679.922 225.771 681.165 225.954 682.537C226.138 683.908 225.762 685.295 224.909 686.393L203.439 713.964C202.942 714.599 202.304 715.114 201.573 715.467C200.842 715.82 200.038 716.002 199.224 716V716Z" fill="#2B7A78" fill-opacity="0.49"/>
<path d="M681.224 769C680.082 769.002 678.971 768.639 678.057 767.964L678.001 767.922L666.076 758.932C665.523 758.516 665.06 757.996 664.712 757.403C664.363 756.81 664.137 756.155 664.046 755.476C663.955 754.797 664 754.107 664.18 753.445C664.359 752.783 664.669 752.162 665.093 751.619C665.516 751.075 666.043 750.618 666.646 750.275C667.248 749.932 667.913 749.71 668.603 749.62C669.292 749.53 669.993 749.575 670.666 749.751C671.338 749.928 671.968 750.234 672.52 750.65L680.244 756.482L698.497 733.042C698.921 732.499 699.449 732.043 700.051 731.7C700.653 731.357 701.318 731.135 702.008 731.045C702.698 730.955 703.399 731 704.071 731.177C704.743 731.354 705.373 731.66 705.925 732.077L705.812 732.229L705.928 732.079C707.042 732.922 707.771 734.165 707.954 735.537C708.138 736.908 707.762 738.295 706.909 739.393L685.439 766.964C684.942 767.599 684.304 768.114 683.573 768.467C682.842 768.82 682.038 769.002 681.224 769V769Z" fill="#2B7A78" fill-opacity="0.49"/>
<path d="M1121.22 117C1120.08 117.002 1118.97 116.639 1118.06 115.964L1118 115.922L1106.08 106.932C1105.52 106.516 1105.06 105.996 1104.71 105.403C1104.36 104.81 1104.14 104.155 1104.05 103.476C1103.95 102.797 1104 102.107 1104.18 101.445C1104.36 100.783 1104.67 100.162 1105.09 99.6185C1105.52 99.0747 1106.04 98.6183 1106.65 98.2754C1107.25 97.9324 1107.91 97.7096 1108.6 97.6197C1109.29 97.5298 1109.99 97.5745 1110.67 97.7514C1111.34 97.9282 1111.97 98.2337 1112.52 98.6504L1120.24 104.482L1138.5 81.0425C1138.92 80.4988 1139.45 80.0426 1140.05 79.6998C1140.65 79.3571 1141.32 79.1345 1142.01 79.0449C1142.7 78.9552 1143.4 79.0002 1144.07 79.1773C1144.74 79.3544 1145.37 79.6601 1145.93 80.077L1145.81 80.2287L1145.93 80.0792C1147.04 80.922 1147.77 82.1654 1147.95 83.5366C1148.14 84.9078 1147.76 86.2948 1146.91 87.3933L1125.44 114.964C1124.94 115.599 1124.3 116.114 1123.57 116.467C1122.84 116.82 1122.04 117.002 1121.22 117V117Z" fill="#2B7A78" fill-opacity="0.49"/>
<path d="M1034.22 346C1033.08 346.002 1031.97 345.639 1031.06 344.964L1031 344.922L1019.08 335.932C1018.52 335.516 1018.06 334.996 1017.71 334.403C1017.36 333.81 1017.14 333.155 1017.05 332.476C1016.95 331.797 1017 331.107 1017.18 330.445C1017.36 329.783 1017.67 329.162 1018.09 328.619C1018.52 328.075 1019.04 327.618 1019.65 327.275C1020.25 326.932 1020.91 326.71 1021.6 326.62C1022.29 326.53 1022.99 326.575 1023.67 326.751C1024.34 326.928 1024.97 327.234 1025.52 327.65L1033.24 333.482L1051.5 310.042C1051.92 309.499 1052.45 309.043 1053.05 308.7C1053.65 308.357 1054.32 308.135 1055.01 308.045C1055.7 307.955 1056.4 308 1057.07 308.177C1057.74 308.354 1058.37 308.66 1058.93 309.077L1058.81 309.229L1058.93 309.079C1060.04 309.922 1060.77 311.165 1060.95 312.537C1061.14 313.908 1060.76 315.295 1059.91 316.393L1038.44 343.964C1037.94 344.599 1037.3 345.114 1036.57 345.467C1035.84 345.82 1035.04 346.002 1034.22 346V346Z" fill="#2B7A78" fill-opacity="0.49"/>
<path d="M1104.22 649C1103.08 649.002 1101.97 648.639 1101.06 647.964L1101 647.922L1089.08 638.932C1088.52 638.516 1088.06 637.996 1087.71 637.403C1087.36 636.81 1087.14 636.155 1087.05 635.476C1086.95 634.797 1087 634.107 1087.18 633.445C1087.36 632.783 1087.67 632.162 1088.09 631.619C1088.52 631.075 1089.04 630.618 1089.65 630.275C1090.25 629.932 1090.91 629.71 1091.6 629.62C1092.29 629.53 1092.99 629.575 1093.67 629.751C1094.34 629.928 1094.97 630.234 1095.52 630.65L1103.24 636.482L1121.5 613.042C1121.92 612.499 1122.45 612.043 1123.05 611.7C1123.65 611.357 1124.32 611.135 1125.01 611.045C1125.7 610.955 1126.4 611 1127.07 611.177C1127.74 611.354 1128.37 611.66 1128.93 612.077L1128.81 612.229L1128.93 612.079C1130.04 612.922 1130.77 614.165 1130.95 615.537C1131.14 616.908 1130.76 618.295 1129.91 619.393L1108.44 646.964C1107.94 647.599 1107.3 648.114 1106.57 648.467C1105.84 648.82 1105.04 649.002 1104.22 649V649Z" fill="#2B7A78" fill-opacity="0.49"/>
</svg>
