<svg width="600" height="540" viewBox="0 0 600 540" fill="none" xmlns="http://www.w3.org/2000/svg">
<g clip-path="url(#clip0)">
<path opacity="0.1" d="M185.264 27.2821C205.62 3.34251 237.578 -1.53219 266.663 0.372946C358.023 6.35954 440.493 64.5034 511.828 130.275C537.653 154.085 563.078 179.767 579.856 212.534C613.984 279.282 603.858 371.752 556.41 426.736C540.265 445.449 520.693 459.788 500.601 472.507C464.879 495.111 426.342 513.254 385.79 518.42C356.875 522.101 327.629 519.098 298.86 513.972C218.551 499.613 139.721 467.869 73.6461 413.536C44.6538 389.712 17.3389 360.09 5.39506 321.527C-6.54875 282.963 1.09529 234.142 30.6848 211.327C42.9246 201.89 57.5532 197.632 71.8805 193.625C92.9692 187.74 114.39 181.93 133.422 169.957C153.078 157.59 176.347 133.671 172.458 106.294C168.283 76.9444 164.933 51.1471 185.264 27.2821Z" fill="#17252A"/>
<path d="M133.303 303.608C133.303 303.608 138.688 298.57 144.261 301.682C144.261 301.682 142.703 306.008 135.76 305.953L133.303 303.608Z" fill="#17252A"/>
<path d="M132.633 303.899C132.633 303.899 131.195 312.34 135.578 317.818C135.578 317.818 138.008 314.245 135.245 305.933L132.633 303.899Z" fill="#17252A"/>
<path d="M125.514 296.218C125.514 296.218 125.711 289.092 138.07 290.834C138.07 290.834 138.263 295.418 134.015 297.804C129.767 300.191 127.731 298.475 125.514 296.218Z" fill="#17252A"/>
<path d="M124.751 296.204C124.751 296.204 119.615 298.645 124.693 313.465C124.693 313.465 128.09 312.293 128.521 306.279C128.952 300.265 127.072 298.279 124.751 296.204Z" fill="#17252A"/>
<path d="M117.496 286.475C117.496 286.475 116.457 274.814 129.045 275.383C129.045 275.383 130.245 285.926 119.796 289.173L117.496 286.475Z" fill="#17252A"/>
<path d="M108.808 273.688C108.808 273.688 110.143 260.352 122.829 263.668C122.829 263.668 123.213 275.126 110.968 276.746L108.808 273.688Z" fill="#17252A"/>
<path d="M102.343 260.339C102.343 260.339 104.846 247.26 117.402 250.528C117.402 250.528 114.806 262.291 103.241 262.685L102.343 260.339Z" fill="#17252A"/>
<path d="M96.1892 247.301C96.1892 247.301 98.6143 233.741 110.729 237.186C110.729 237.186 107.094 250.115 97.0357 249.545L96.1892 247.301Z" fill="#17252A"/>
<path d="M92.1024 234.826C92.1024 234.826 93.7901 218.331 105.085 221.395C105.085 221.395 102.27 236.467 92.9852 237.165L92.1024 234.826Z" fill="#17252A"/>
<path d="M88.1713 219.7C88.1713 219.7 90.2848 203.056 101.751 207.293C101.751 207.293 97.7627 223.124 89.0281 221.945L88.1713 219.7Z" fill="#17252A"/>
<path d="M85.5956 205.592C85.5956 205.592 89.2307 188.873 98.0171 188.879C98.0171 188.879 94.3042 206.507 86.4264 208.866L85.5956 205.592Z" fill="#17252A"/>
<path d="M83.8196 191.747C83.8196 191.747 87.7299 171.638 94.9066 172.818C94.9066 172.818 92.2426 188.167 84.1623 194.832L83.8196 191.747Z" fill="#17252A"/>
<path d="M82.5577 175.191C82.5577 175.191 86.2811 158.418 93.302 157.401C93.302 157.401 90.9132 173.842 82.8382 179.489L82.5577 175.191Z" fill="#17252A"/>
<path d="M81.2491 159.787C81.2491 159.787 86.0162 142.939 90.6587 142.329C90.6587 142.329 88.8568 158.77 81.7943 162.485L81.2491 159.787Z" fill="#17252A"/>
<path d="M80.2468 145.427C80.2468 145.427 82.9472 127.251 87.5481 125.529C87.5481 125.529 87.3456 140.288 80.7505 146.749L80.2468 145.427Z" fill="#17252A"/>
<path d="M77.9464 126.688C77.9464 126.688 80.9219 112.166 84.6193 109.786C84.6193 109.786 84.37 126.735 78.9071 130.125L77.9464 126.688Z" fill="#17252A"/>
<path d="M76.1288 114.389L74.7007 89.1141C74.7007 89.1141 82.2825 107.867 76.7779 118.83L76.1288 114.389Z" fill="#17252A"/>
<path d="M69.9492 89.5073C69.9492 89.5073 64.346 71.2764 63.0997 70.3069C63.0997 70.3069 73.3817 81.8326 72.8624 97.277L69.9492 89.5073Z" fill="#17252A"/>
<path d="M117.153 286.407C117.153 286.407 108.195 285.329 108.948 301.75C108.948 301.75 117.049 303.058 119.277 289.336L117.153 286.407Z" fill="#17252A"/>
<path d="M108.377 273.268C108.377 273.268 98.0847 273.736 99.4141 290.516C99.4141 290.516 108.112 292.102 110.506 276.339L108.377 273.268Z" fill="#17252A"/>
<path d="M102.275 261.437C102.275 261.437 92.7619 256.183 87.2158 271.247C87.2158 271.247 95.9867 275.58 103.169 263.79L102.275 261.437Z" fill="#17252A"/>
<path d="M95.9815 247.437C95.9815 247.437 86.2395 241.823 81.0413 256.535C81.0413 256.535 91.1416 260.515 96.8383 249.674L95.9815 247.437Z" fill="#17252A"/>
<path d="M92.2322 235.172C92.2322 235.172 82.6876 224.148 75.6823 236.135C75.6823 236.135 85.3671 245.111 92.7307 237.708L92.2322 235.172Z" fill="#17252A"/>
<path d="M88.6802 219.28C88.6802 219.28 79.0732 207.998 72.1406 220.636C72.1406 220.636 82.8225 229.755 89.0853 221.714L88.6802 219.28Z" fill="#17252A"/>
<path d="M86.5303 205.056C86.5303 205.056 78.9641 190.751 70.6554 194.439C70.6554 194.439 78.5175 209.598 86.551 208.507L86.5303 205.056Z" fill="#17252A"/>
<path d="M84.0325 191.645C84.0325 191.645 76.2898 173.53 69.5909 177.076C69.5909 177.076 75.1889 191.015 84.3025 194.737L84.0325 191.645Z" fill="#17252A"/>
<path d="M83.0199 174.221C83.0199 174.221 75.1993 160.051 68.329 162.174C68.329 162.174 74.8046 176.615 83.8611 178.398L83.0199 174.221Z" fill="#17252A"/>
<path d="M82.0228 159.421C82.0228 159.421 75.8172 143.393 71.1539 143.482C71.1539 143.482 74.3788 159.55 81.7164 162.18L82.0228 159.421Z" fill="#17252A"/>
<path d="M80.4649 145.061C80.4649 145.061 73.6102 128.857 68.8223 129.061C68.8223 129.061 72.4989 143.027 80.2936 146.526L80.4649 145.061Z" fill="#17252A"/>
<path d="M78.9954 127.624C78.9954 127.624 73.8283 114.186 69.8401 112.837C69.8401 112.837 72.7119 129.38 78.5747 131.278L78.9954 127.624Z" fill="#17252A"/>
<path d="M75.5472 113.942L64.2837 93.304C64.2837 93.304 67.6228 114.064 77.2193 117.901L75.5472 113.942Z" fill="#17252A"/>
<path d="M67.5657 91.3311C67.5657 91.3311 54.8897 80.802 54.3704 79.0189C54.3704 79.0189 61.1212 94.3278 72.8885 96.4973L67.5657 91.3311Z" fill="#17252A"/>
<path d="M66.6776 86.3547C66.6776 86.3547 51.9504 69.2356 48.3257 69.439C48.3257 69.439 60.0618 69.5475 67.0203 85.392L66.6776 86.3547Z" fill="#17252A"/>
<path d="M78.933 130.335L78.4137 130.451C74.9448 103.298 70.5776 87.3717 66.122 85.5954L66.2726 84.9174C70.9878 86.7886 75.3811 102.484 78.933 130.335Z" fill="#444053"/>
<path d="M84.7751 195.341L83.9962 195.463C83.7573 192.927 83.5496 190.323 83.3886 187.734C81.9813 165.191 80.2157 144.512 78.2424 129.041L78.6734 128.288C80.6519 143.787 82.7602 165.075 84.1727 187.652C84.3337 190.229 84.5362 192.812 84.7751 195.341Z" fill="#444053"/>
<path d="M148.275 315.866C148.134 315.791 134.134 308.455 119.282 290.028C110.585 279.242 103.251 266.725 97.555 252.942C90.4354 235.714 85.7773 214.331 83.8092 193.435L84.6401 193.896C89.0541 240.799 106.409 272.149 119.952 288.997C134.659 307.262 148.514 314.523 148.643 314.591L148.275 315.866Z" fill="#444053"/>
<g opacity="0.7">
<path opacity="0.7" d="M155.031 260.651C155.031 260.651 161.319 257.939 165.936 263.071C165.936 263.071 163.459 266.597 156.843 263.844L155.031 260.651Z" fill="#17252A"/>
<path opacity="0.7" d="M154.325 260.664C154.325 260.664 151.032 268.169 153.966 275.092C153.966 275.092 157.082 272.631 156.36 263.62L154.325 260.664Z" fill="#17252A"/>
<path opacity="0.7" d="M149.272 250.569C149.272 250.569 151.089 243.843 162.488 250.305C162.488 250.305 161.631 254.759 157.025 255.383C152.419 256.006 150.882 253.572 149.272 250.569Z" fill="#17252A"/>
<path opacity="0.7" d="M148.55 250.264C148.55 250.264 143.097 250.603 144.562 266.719C144.562 266.719 148.077 266.922 149.859 261.342C151.64 255.762 150.295 253.139 148.55 250.264Z" fill="#17252A"/>
<path opacity="0.7" d="M143.845 238.135C143.845 238.135 145.502 226.609 157.394 232.033C157.394 232.033 156.142 242.562 145.424 241.606L143.845 238.135Z" fill="#17252A"/>
<path opacity="0.7" d="M138.465 222.541C138.465 222.541 142.775 210.338 154.117 218.419C154.117 218.419 151.873 229.504 139.81 226.297L138.465 222.541Z" fill="#17252A"/>
<path opacity="0.7" d="M135.329 207.32C135.329 207.32 140.703 195.795 151.946 203.802C151.946 203.802 146.753 214.012 135.656 209.904L135.329 207.32Z" fill="#17252A"/>
<path opacity="0.7" d="M132.426 192.479C132.426 192.479 137.826 180.493 148.623 188.473C148.623 188.473 142.209 199.402 132.737 194.954L132.426 192.479Z" fill="#17252A"/>
<path opacity="0.7" d="M131.366 178.981C131.366 178.981 136.736 163.889 146.831 171.211C146.831 171.211 140.708 184.5 131.688 181.564L131.366 178.981Z" fill="#17252A"/>
<path opacity="0.7" d="M131.065 163.014C131.065 163.014 136.876 147.943 146.852 156.445C146.852 156.445 139.441 170.004 131.372 165.489L131.065 163.014Z" fill="#17252A"/>
<path opacity="0.7" d="M131.829 148.526C131.829 148.526 139.099 133.976 147.49 137.393C147.49 137.393 139.924 152.804 131.87 151.977L131.829 148.526Z" fill="#17252A"/>
<path opacity="0.7" d="M133.303 134.634C133.303 134.634 141.612 116.959 148.202 120.871C148.202 120.871 142.157 134.492 132.929 137.712L133.303 134.634Z" fill="#17252A"/>
<path opacity="0.7" d="M135.843 118.342C135.843 118.342 143.227 103.772 150.155 105.528C150.155 105.528 144.131 120.301 135.136 122.552L135.843 118.342Z" fill="#17252A"/>
<path opacity="0.7" d="M138.112 103.121C138.112 103.121 146.499 88.8836 151.068 90.1175C151.068 90.1175 145.6 105.115 138.013 105.908L138.112 103.121Z" fill="#17252A"/>
<path opacity="0.7" d="M140.423 89.026C140.423 89.026 147.143 72.7544 151.93 72.8628C151.93 72.8628 148.368 86.8768 140.605 90.4904L140.423 89.026Z" fill="#17252A"/>
<path opacity="0.7" d="M142.495 70.2391C142.495 70.2391 148.649 57.5336 152.72 56.6794C152.72 56.6794 148.617 72.7747 142.635 73.9069L142.495 70.2391Z" fill="#17252A"/>
<path opacity="0.7" d="M143.565 57.7913L147.963 33.0991C147.963 33.0991 150.928 53.9471 143.17 62.2524L143.565 57.7913Z" fill="#17252A"/>
<path opacity="0.7" d="M143.347 31.6415C143.347 31.6415 142.147 12.0613 141.181 10.624C141.181 10.624 148.378 25.5939 144.359 40.1705L143.347 31.6415Z" fill="#17252A"/>
<path opacity="0.7" d="M143.528 237.952C143.528 237.952 135.22 233.45 132.202 249.423C132.202 249.423 139.634 253.817 144.889 241.579L143.528 237.952Z" fill="#17252A"/>
<path opacity="0.7" d="M138.143 221.999C138.143 221.999 128.209 218.453 125.654 234.989C125.654 234.989 133.599 239.884 139.478 225.762L138.143 221.999Z" fill="#17252A"/>
<path opacity="0.7" d="M135.017 208.337C135.017 208.337 127.134 199.625 118.4 211.856C118.4 211.856 125.784 219.402 135.334 210.921L135.017 208.337Z" fill="#17252A"/>
<path opacity="0.7" d="M132.202 192.527C132.202 192.527 124.174 183.388 115.865 195.408C115.865 195.408 124.6 203.137 132.509 195.002L132.202 192.527Z" fill="#17252A"/>
<path opacity="0.7" d="M131.418 179.367C131.418 179.367 124.813 165.13 115.393 173.848C115.393 173.848 122.595 186.188 131.314 181.984L131.418 179.367Z" fill="#17252A"/>
<path opacity="0.7" d="M131.647 162.811C131.647 162.811 125.041 148.309 115.549 157.692C115.549 157.692 123.67 170.574 131.475 165.306L131.647 162.811Z" fill="#17252A"/>
<path opacity="0.7" d="M132.831 148.39C132.831 148.39 128.869 131.8 120.098 132.119C120.098 132.119 124.148 149.651 132.067 151.726L132.831 148.39Z" fill="#17252A"/>
<path opacity="0.7" d="M133.501 134.62C133.501 134.62 130.239 114.315 123.037 115.101C123.037 115.101 125.208 130.586 133.059 137.685L133.501 134.62Z" fill="#17252A"/>
<path opacity="0.7" d="M136.513 117.596C136.513 117.596 132.275 101.026 125.228 100.382C125.228 100.382 128.121 116.688 136.362 121.908L136.513 117.596Z" fill="#17252A"/>
<path opacity="0.7" d="M138.933 103.074C138.933 103.074 136.658 85.3648 132.182 83.636C132.182 83.636 131.605 100.226 138.008 105.596L138.933 103.074Z" fill="#17252A"/>
<path opacity="0.7" d="M140.714 88.7615C140.714 88.7615 137.863 70.6255 133.246 68.9644C133.246 68.9644 133.573 83.7241 140.22 90.0904L140.714 88.7615Z" fill="#17252A"/>
<path opacity="0.7" d="M143.279 71.5679C143.279 71.5679 141.41 56.7336 137.909 53.8929C137.909 53.8929 136.871 70.8018 142.064 74.9103L143.279 71.5679Z" fill="#17252A"/>
<path opacity="0.7" d="M143.113 57.1133L137.058 33.0313C137.058 33.0313 135.5 54.1437 143.809 61.5405L143.113 57.1133Z" fill="#17252A"/>
<path opacity="0.7" d="M140.646 32.455C140.646 32.455 130.92 17.4648 130.847 15.5733C130.847 15.5733 133.823 32.8144 144.541 39.4518L140.646 32.455Z" fill="#17252A"/>
<path opacity="0.7" d="M140.932 27.3634C140.932 27.3634 130.769 5.29505 127.264 4.07468C127.264 4.07468 138.439 8.74598 141.451 26.5566L140.932 27.3634Z" fill="#17252A"/>
<path opacity="0.7" d="M142.614 74.0629L142.095 73.968C144.967 46.7063 144.432 29.7974 140.579 26.3735L140.875 25.8108C144.962 29.4516 145.559 46.1368 142.614 74.0629Z" fill="#444053"/>
<path opacity="0.7" d="M133.371 138.471L132.597 138.288C132.95 135.773 133.345 133.21 133.781 130.668C137.577 108.599 140.605 88.1785 142.24 72.6391L142.827 72.0832C141.186 87.6768 138.346 108.796 134.55 130.898C134.113 133.386 133.719 135.936 133.371 138.471Z" fill="#444053"/>
<path opacity="0.7" d="M166.538 278.17C166.424 278.048 154.73 265.607 144.728 242.237C138.883 228.561 134.736 213.763 132.441 198.391C129.57 179.177 129.99 156.953 132.878 136.241L133.563 137C127.098 183.496 136.523 220.175 145.631 241.525C155.498 264.671 167.068 276.983 167.187 277.105L166.538 278.17Z" fill="#444053"/>
</g>
<path d="M526.748 511.274C526.748 511.274 504.792 509.545 507.384 529.634C507.384 529.634 506.864 533.18 509.331 534.793C509.331 534.793 509.372 533.302 511.585 533.81C512.372 533.983 513.172 534.033 513.968 533.959C515.046 533.861 516.07 533.309 516.887 532.386C516.887 532.386 523.056 529.057 525.455 515.891C525.455 515.891 527.231 513.016 527.164 512.277L523.456 514.311C523.456 514.311 524.723 517.803 523.726 520.698C523.726 520.698 523.606 514.44 522.895 514.596C522.75 514.63 520.968 515.81 520.968 515.81C520.968 515.81 523.149 521.911 521.488 526.305C521.488 526.305 522.111 518.813 520.273 516.244L517.676 518.237C517.676 518.237 520.221 524.515 518.496 529.634C518.496 529.634 518.938 521.776 517.126 518.718L514.763 521.125C514.763 521.125 517.157 527.315 515.697 531.559C515.697 531.559 515.505 522.413 514.254 521.722C514.254 521.722 512.177 524.101 511.87 525.112C511.87 525.112 513.506 529.6 512.493 531.973C512.493 531.973 511.87 525.871 511.356 525.871C511.356 525.871 509.279 529.905 509.082 532.651C509.082 532.651 509.17 528.535 510.858 525.464C509.67 525.756 508.574 526.496 507.705 527.593C507.705 527.593 508.027 524.739 511.341 524.488C511.341 524.488 513.044 521.43 513.501 521.24C513.501 521.24 510.172 520.881 508.157 522.047C508.157 522.047 509.933 519.335 514.108 520.576L516.44 518.088C516.44 518.088 512.062 517.308 510.209 518.169C510.209 518.169 512.343 515.789 517.068 517.525L519.608 515.545C519.608 515.545 515.879 514.494 513.657 514.867C513.657 514.867 516.004 513.213 520.356 515.003L522.173 513.938C522.173 513.938 519.436 513.26 518.637 513.125C517.837 512.989 517.795 512.725 517.795 512.725C519.526 512.348 521.302 512.606 522.926 513.471C522.926 513.471 526.816 511.593 526.748 511.274Z" fill="#17252A"/>
<path opacity="0.1" d="M511.626 539.973C520.207 539.973 527.163 538.437 527.163 536.542C527.163 534.648 520.207 533.112 511.626 533.112C503.045 533.112 496.089 534.648 496.089 536.542C496.089 538.437 503.045 539.973 511.626 539.973Z" fill="#17252A"/>
<path d="M568.863 458.344C568.863 458.344 556.488 457.374 557.958 468.697C557.882 469.27 557.947 469.861 558.144 470.383C558.341 470.905 558.659 471.333 559.053 471.605C559.053 471.605 559.079 470.764 560.326 471.049C560.77 471.15 561.221 471.18 561.671 471.137C562.277 471.084 562.854 470.772 563.312 470.249C563.312 470.249 566.791 468.371 568.146 460.947C568.146 460.947 569.149 459.327 569.107 458.913L567.03 460.079C567.03 460.079 567.741 462.046 567.18 463.679C567.18 463.679 567.113 460.147 566.713 460.235C566.63 460.235 565.628 460.913 565.628 460.913C565.628 460.913 566.853 464.344 565.929 466.832C565.929 466.832 566.282 462.608 565.243 461.164L563.774 462.283C563.774 462.283 565.207 465.822 564.236 468.71C564.236 468.71 564.485 464.283 563.462 462.554L562.133 463.91C562.133 463.91 563.478 467.402 562.652 469.795C562.652 469.795 562.543 464.642 561.837 464.249C561.332 464.807 560.881 465.442 560.492 466.141C560.492 466.141 561.416 468.676 560.845 470.012C560.845 470.012 560.492 466.574 560.206 466.561C560.206 466.561 559.043 468.839 558.924 470.398C558.979 468.951 559.325 467.549 559.926 466.33C559.255 466.495 558.636 466.912 558.145 467.53C558.145 467.53 558.326 465.924 560.222 465.781C560.222 465.781 561.183 464.052 561.437 463.951C561.437 463.951 559.562 463.747 558.425 464.405C558.425 464.405 559.427 462.886 561.78 463.571L563.099 462.174C563.099 462.174 560.627 461.734 559.583 462.222C559.583 462.222 560.788 460.866 563.452 461.856L564.885 460.737C563.782 460.422 562.653 460.294 561.525 460.357C561.525 460.357 562.849 459.428 565.301 460.439L566.339 459.835C566.339 459.835 564.781 459.442 564.345 459.381C563.909 459.32 563.867 459.151 563.867 459.151C564.844 458.938 565.847 459.084 566.765 459.571C566.765 459.571 568.899 458.527 568.863 458.344Z" fill="#17252A"/>
<path opacity="0.1" d="M560.341 474.527C565.18 474.527 569.102 473.662 569.102 472.595C569.102 471.528 565.18 470.663 560.341 470.663C555.503 470.663 551.581 471.528 551.581 472.595C551.581 473.662 555.503 474.527 560.341 474.527Z" fill="#17252A"/>
<path d="M495.803 468.174C495.803 468.174 480.858 466.995 482.623 480.67C482.532 481.363 482.611 482.076 482.848 482.707C483.086 483.338 483.471 483.854 483.948 484.182C483.948 484.182 483.948 483.171 485.48 483.504C486.016 483.621 486.562 483.657 487.105 483.612C487.837 483.543 488.533 483.167 489.089 482.541C489.089 482.541 493.29 480.276 494.926 471.307C494.926 471.307 496.136 469.354 496.084 468.852L493.565 470.256C493.565 470.256 494.427 472.636 493.747 474.609C493.747 474.609 493.669 470.344 493.181 470.446C493.082 470.446 491.872 471.266 491.872 471.266C491.872 471.266 493.352 475.409 492.236 478.412C492.236 478.412 492.661 473.314 491.41 471.564L489.634 472.92C489.634 472.92 491.363 477.192 490.19 480.683C490.19 480.683 490.491 475.334 489.26 473.225L487.65 474.859C487.65 474.859 489.281 479.07 488.289 481.965C488.289 481.965 488.159 475.741 487.302 475.266C487.302 475.266 485.895 476.887 485.682 477.551C485.682 477.551 486.793 480.609 486.103 482.222C486.103 482.222 485.682 478.08 485.334 478.059C485.334 478.059 483.932 480.805 483.776 482.69C483.846 480.949 484.263 479.261 484.986 477.795C484.178 477.996 483.433 478.5 482.842 479.246C482.842 479.246 483.06 477.3 485.334 477.131C485.334 477.131 486.492 475.049 486.804 474.92C486.804 474.92 484.54 474.676 483.169 475.47C483.169 475.47 484.374 473.632 487.214 474.466L488.803 472.778C488.803 472.778 485.828 472.242 484.56 472.832C484.56 472.832 486.014 471.212 489.234 472.392L490.963 471.036C490.963 471.036 488.424 470.317 486.908 470.575C486.908 470.575 488.507 469.456 491.467 470.669L492.708 470.005C492.708 470.005 490.849 469.53 490.304 469.456C489.759 469.381 489.733 469.185 489.733 469.185C490.911 468.929 492.121 469.105 493.227 469.693C493.227 469.693 495.85 468.391 495.803 468.174Z" fill="#17252A"/>
<path opacity="0.1" d="M485.511 487.707C491.353 487.707 496.089 486.663 496.089 485.375C496.089 484.087 491.353 483.043 485.511 483.043C479.669 483.043 474.933 484.087 474.933 485.375C474.933 486.663 479.669 487.707 485.511 487.707Z" fill="#17252A"/>
<path opacity="0.1" d="M370.814 475.266L318.723 501.579L242.584 540C239.712 533.037 235.475 523.511 230.23 512.203C212.2 473.185 182.361 412.499 155.804 359.168C125.872 299.079 100.115 248.338 100.115 248.338L118.763 241.281L271.083 183.605L370.814 475.266Z" fill="black"/>
<path d="M371.852 470.52L319.762 496.833L243.623 535.254C240.751 528.291 236.513 518.766 231.269 507.457C213.239 468.439 183.4 407.753 156.843 354.422C126.911 294.333 101.154 243.593 101.154 243.593L119.802 236.535L272.122 178.859L371.852 470.52Z" fill="white"/>
<path opacity="0.1" d="M371.852 470.52L319.762 496.833C290.668 504.745 260.979 508.309 231.269 507.457C213.239 468.439 183.4 407.753 156.843 354.422L119.802 236.535L272.122 178.859L371.852 470.52Z" fill="black"/>
<path d="M410.608 454.154C410.608 454.154 329.68 516.65 208.861 502.548L112.531 195.971L158.692 185.618L318.261 149.841L408.8 448.228L410.608 454.154Z" fill="#17252A"/>
<path opacity="0.1" d="M408.8 448.228C389.742 449.449 367.703 449.333 345.519 445.882C321.517 442.208 297.401 434.601 276.681 420.675C259.378 409.034 244.583 396.39 231.679 381.21C198.127 341.805 177.36 285.438 158.713 185.618L318.282 149.841L408.8 448.228Z" fill="black"/>
<path d="M468.161 431.089C468.161 431.089 408.484 446.357 347.799 436.953C323.797 433.258 299.655 425.672 278.961 411.746C261.658 400.105 246.863 387.461 233.958 372.281C192.415 323.466 170.495 248.738 147.885 97.7584C147.885 97.7584 247.071 129.007 345.067 60.5574C345.067 60.5574 378.12 329.9 468.161 431.089Z" fill="white"/>
<path opacity="0.1" d="M347.799 436.953C323.797 433.258 299.655 425.672 278.961 411.746C261.658 400.105 246.863 387.461 233.958 372.281C269.317 368.531 274.401 343.29 274.401 343.29C300.615 397.61 347.799 436.953 347.799 436.953Z" fill="black"/>
<path opacity="0.3" d="M199.176 153.19C199.176 153.19 252.456 161.129 302.324 124.546L305.741 138.871C305.741 138.871 258.033 169.93 199.176 169.93V153.19Z" fill="#17252A"/>
<path opacity="0.3" d="M199.176 223.897C199.176 223.897 252.144 218.317 311.11 181.11L313.104 187.062C313.104 187.062 291.403 222.717 199.176 232.033V223.897Z" fill="black"/>
<path opacity="0.3" d="M205.454 251.478C205.454 251.478 258.423 245.898 317.389 208.697L319.383 214.649C319.383 214.649 297.687 250.338 205.454 259.661V251.478Z" fill="black"/>
<path opacity="0.3" d="M211.198 281.207C211.198 281.207 264.166 275.627 323.132 238.426L325.126 244.379C325.126 244.379 303.399 280.048 211.198 289.39V281.207Z" fill="black"/>
<path opacity="0.3" d="M218.016 306.686C218.016 306.686 270.984 301.106 329.95 263.905L331.945 269.858C331.945 269.858 310.248 305.533 218.016 314.876V306.686Z" fill="black"/>
<path opacity="0.1" d="M224.3 334.293C224.3 334.293 277.268 328.713 336.234 291.512L338.228 297.465C338.228 297.465 316.527 333.141 224.3 342.476V334.293Z" fill="black"/>
<path opacity="0.3" d="M334.681 162.544L319.86 169.131L324.905 188.482L339.727 181.895L334.681 162.544Z" fill="#17252A"/>
<path opacity="0.3" d="M343.113 191.332L328.292 197.919L333.337 217.27L348.159 210.682L343.113 191.332Z" fill="#17252A"/>
<path opacity="0.3" d="M356.63 246.723L341.809 253.31L346.854 272.661L361.676 266.073L356.63 246.723Z" fill="#17252A"/>
<path opacity="0.3" d="M364.386 276.452L349.564 283.039L354.61 302.39L369.432 295.802L364.386 276.452Z" fill="#17252A"/>
<path opacity="0.3" d="M349.988 221.238L335.167 227.825L340.212 247.176L355.034 240.588L349.988 221.238Z" fill="#17252A"/>
<path d="M504.964 304.801L504.408 304.123C505.841 303.743 507.191 303.574 507.191 303.574C507.191 303.574 502.274 280.346 493.98 272.597C489.878 268.766 486.461 262.386 484.046 256.915C479.645 247.021 474.7 237.557 469.252 228.596L467.756 226.134L467.112 225.063C468.01 223.287 469.111 221.599 468.987 219.538C468.984 219.524 468.984 219.51 468.987 219.497C468.992 219.389 468.992 219.28 468.987 219.172C468.972 218.917 468.937 218.665 468.883 218.419L468.826 218.534C468.125 215.877 465.43 214.704 463.43 213.239C458.757 209.802 456.757 202.29 455.76 195.307C454.981 189.883 454.337 183.781 451.087 180.289C449.009 178.045 446.184 177.306 444.092 175.076C442.108 172.96 441.002 169.753 439.756 166.804C437.678 161.889 434.937 157.312 431.317 154.377C427.698 151.441 423.102 150.309 419.129 152.275C417.608 153.034 416.226 154.214 414.72 155.034C410.981 157.068 406.697 156.797 402.995 158.946C398.435 161.591 395.47 167.435 392.759 172.981C391.357 175.848 389.155 180.045 387.904 184.269C387.904 184.12 387.904 183.978 387.904 183.828C387.304 185.689 386.976 187.681 386.938 189.7C386.913 190.558 386.985 191.417 387.151 192.249C387.712 194.961 389.384 196.459 391.368 197.503C391.482 198.366 391.635 199.219 391.825 200.059C392.722 203.917 394.319 207.435 396.48 210.316C398.64 213.197 401.301 215.356 404.236 216.609C404.407 216.69 404.584 216.744 404.755 216.812C404.899 217.349 405.108 217.852 405.373 218.304C407.03 221.016 410.353 220.243 412.513 218.27C412.602 218.195 412.685 218.1 412.768 218.019C412.782 218.403 412.814 218.786 412.861 219.165C412.908 219.49 412.944 219.843 412.996 220.134C414.944 233.836 419.929 241.233 419.929 241.233C419.929 241.233 420.391 242.142 421.144 243.647C420.749 251.206 423.393 258.095 426.446 263.417C423.813 265.403 418.137 269.295 414.627 268.969C414.627 268.969 401.728 271.146 400.232 270.054C400.024 269.905 399.827 270.108 399.64 270.57C396.088 267.742 384.731 259.593 383.76 270.054C382.882 279.546 393.232 280.76 398.16 280.807C397.937 283.587 397.812 285.811 397.812 285.811L419.004 283.919L430.04 281.797C428.819 283.905 427.443 285.783 426.098 286.699C426.098 286.699 416.122 297.241 414.398 297.336C414.154 297.336 414.076 297.655 414.113 298.163C409.917 298.163 396.867 298.957 400.486 308.448C403.774 317.052 413.027 311.099 417.213 307.811C418.2 310.313 419.041 312.272 419.041 312.272L436.141 296.374L439.844 292.306C441.099 292.227 442.339 291.914 443.526 291.377C443.526 291.438 443.562 291.499 443.578 291.553C443.71 292.052 443.809 292.564 443.874 293.085C444.912 300.875 441.423 319.045 441.423 319.045C441.423 319.045 433.747 344.598 437.434 348.083C441.121 351.568 438.395 366.274 438.395 366.274C439.039 367.687 439.779 369.021 440.607 370.26C440.998 370.849 441.431 371.387 441.9 371.867C441.729 372.476 441.587 373.099 441.474 373.731C440.911 376.864 441.124 380.15 442.082 383.115C444.616 391.142 443.074 402.776 443.074 402.776L438.099 446.655C435.71 446.181 432.626 445.787 431.478 446.655C429.718 447.95 430.294 454.479 434.381 457.286C433.14 458.526 431.703 459.39 430.175 459.815C426.539 460.9 423.985 461.591 422.302 462.012C422.193 462.012 413.578 459.53 411.366 461.171C409.153 462.812 410.218 471.91 416.512 474.141C422.671 476.317 445.639 479.51 452.255 478.209L452.676 478.114C458.3 476.663 453.361 467.015 452.738 465.842C452.696 465.449 452.66 465.035 452.619 464.588C452.53 463.584 452.452 462.432 452.395 461.198C458.668 461.951 464.858 462.317 467.699 461.761C467.834 461.761 467.959 461.706 468.073 461.673C473.053 460.384 468.691 451.855 468.13 450.825C468.106 450.563 468.08 450.285 468.052 449.991V449.916C468.052 449.72 468.016 449.51 468 449.306C467.985 449.103 468 448.96 467.959 448.777C467.917 448.594 467.959 448.452 467.922 448.282C467.901 447.948 467.881 447.602 467.86 447.245C467.86 447.103 467.86 446.954 467.86 446.804C467.86 446.533 467.834 446.262 467.824 445.984C467.824 445.835 467.824 445.686 467.824 445.53C467.824 445.123 467.824 444.703 467.792 444.282C467.792 444.167 467.792 444.052 467.792 443.937C467.792 443.598 467.792 443.259 467.792 442.906C467.792 442.743 467.792 442.581 467.792 442.411C467.792 442.052 467.792 441.692 467.792 441.326C467.792 441.204 467.792 441.089 467.792 440.967C467.792 440.513 467.824 440.045 467.844 439.577L467.875 439.075C467.875 438.73 467.917 438.397 467.943 438.045C467.943 437.875 467.943 437.706 467.985 437.536C468.026 437.062 468.073 436.587 468.125 436.106C468.125 435.963 468.161 435.821 468.177 435.679C468.223 435.319 468.27 434.953 468.322 434.587C468.322 434.411 468.374 434.228 468.405 434.045C468.467 433.652 468.535 433.258 468.608 432.865C468.608 432.757 468.644 432.648 468.665 432.54C468.758 432.065 468.862 431.597 468.971 431.129C469.008 430.967 469.049 430.804 469.091 430.641C469.179 430.289 469.272 429.963 469.371 429.597L469.496 429.163C469.636 428.702 469.786 428.248 469.942 427.807C469.984 427.692 470.031 427.577 470.077 427.462C470.207 427.109 470.347 426.784 470.493 426.417L470.669 426.017C470.867 425.584 471.069 425.15 471.292 424.736C477.005 414.105 478.511 393.603 478.37 389.142C478.23 384.681 479.051 375.426 480.074 374.057C480.759 373.142 484.747 365.921 487.131 360.429C487.562 359.426 487.936 358.484 488.232 357.643C489.925 356.877 491.046 356.287 491.046 356.287C490.45 353.44 490.163 350.499 490.195 347.548C490.236 341.778 491.452 334.178 496.468 328.008C503.873 318.896 504.906 309.865 505.005 306.394C505.005 306.15 505.005 305.933 505.005 305.75C504.99 305.113 504.964 304.801 504.964 304.801Z" fill="url(#paint0_linear)"/>
<path d="M485.23 361.663C483.221 366.352 480.965 370.853 478.48 375.135C477.503 376.491 476.719 385.65 476.854 390.05C476.989 394.451 475.561 414.736 470.103 425.245C464.645 435.753 467.45 453.916 467.45 453.916L458.741 457.903H448.277L441.069 455.089L439.169 448.242C439.169 448.242 441.703 447.733 447.997 445.781C449.743 445.317 451.324 444.12 452.501 442.373C453.678 440.627 454.384 438.426 454.514 436.106L458.933 395.813C458.933 395.813 460.237 385.644 458.087 378.606C457.481 376.625 457.23 374.49 457.352 372.364C457.475 370.237 457.967 368.175 458.793 366.335L458.933 366.05C458.933 366.05 465.752 359.019 472.7 354.619C478.853 350.741 485.095 348.897 486.866 355.778C487.095 356.667 486.347 358.951 485.23 361.663Z" fill="#A5636D"/>
<path opacity="0.05" d="M485.23 361.663C483.221 366.352 480.965 370.853 478.48 375.135C477.503 376.491 476.719 385.65 476.854 390.05C476.989 394.451 475.561 414.736 470.103 425.245C466.26 432.655 466.515 443.855 466.987 449.828C467.19 452.33 467.439 453.896 467.439 453.896L458.731 457.883H448.277L441.069 455.089L439.169 448.242C439.169 448.242 439.802 448.113 441.246 447.747C442.69 447.381 444.881 446.757 448.028 445.781C449.768 445.309 451.343 444.109 452.513 442.363C453.684 440.617 454.386 438.42 454.514 436.106L458.933 395.813C458.933 395.813 460.237 385.644 458.087 378.606C457.481 376.625 457.23 374.49 457.352 372.364C457.475 370.237 457.967 368.175 458.793 366.335L458.933 366.05C458.933 366.05 465.752 359.019 472.7 354.619C478.853 350.741 485.095 348.897 486.866 355.778C487.095 356.667 486.347 358.951 485.23 361.663Z" fill="black"/>
<path opacity="0.1" d="M467.45 453.923L458.741 457.91H448.277L441.069 455.089L439.169 448.242C439.169 448.242 439.802 448.113 441.246 447.747C441.144 448.991 441.395 450.241 441.951 451.26C442.507 452.28 443.329 452.998 444.263 453.279L448.355 453.462C448.932 453.462 449.513 453.503 450.084 453.503C455.84 453.507 461.557 452.268 467.003 449.835C467.211 452.337 467.45 453.923 467.45 453.923Z" fill="black"/>
<path d="M448.35 454.615L444.253 454.432C444.253 454.432 440.431 453.374 441.365 447.713C441.365 447.713 433.991 445.53 432.106 446.974C430.221 448.418 431.13 456.384 436.458 458.337C441.651 460.242 461.104 463.042 466.697 461.896L467.055 461.815C472.123 460.459 467.055 450.967 467.055 450.967C461.041 453.655 454.703 454.891 448.35 454.615Z" fill="#BEBED0"/>
<path d="M473.583 363.223C473.307 363.941 473.011 364.687 472.674 365.467C470.103 371.569 465.98 379.25 465.258 380.247C464.157 381.779 463.28 392.112 463.42 397.101C463.56 402.091 461.961 424.953 455.802 436.818C452.65 442.92 451.938 451.225 451.99 457.91C452.006 460.175 452.108 462.438 452.297 464.69C452.525 467.449 452.816 469.171 452.816 469.171L442.991 473.666H431.166L423.029 470.507L420.9 462.751C420.9 462.751 421.611 462.601 423.211 462.188C424.81 461.774 427.303 461.083 430.865 459.984C432.831 459.454 434.61 458.101 435.934 456.131C437.258 454.162 438.055 451.682 438.203 449.069L443.183 403.597C443.183 403.597 444.653 392.105 442.233 384.172C441.319 381.228 441.116 377.99 441.651 374.891C441.941 373.15 442.468 371.492 443.209 369.996C443.209 369.996 445.11 368.043 447.976 365.46C449.243 364.321 450.713 363.06 452.291 361.785C459.229 356.178 468.353 350.456 472.726 354.626C473.69 355.576 474.396 356.904 474.741 358.416C474.917 359.202 474.424 360.985 473.583 363.223Z" fill="#A5636D"/>
<path opacity="0.1" d="M452.79 469.178L442.965 473.673H431.166L423.029 470.514L420.9 462.757C420.9 462.757 421.611 462.608 423.211 462.195C423.109 463.114 423.181 464.051 423.422 464.925C423.663 465.799 424.065 466.582 424.592 467.205C425.411 468.114 426.446 468.622 427.521 468.642L431.244 468.798C431.893 468.798 432.548 468.846 433.197 468.846C439.695 468.844 446.148 467.442 452.297 464.696C452.525 467.456 452.79 469.178 452.79 469.178Z" fill="black"/>
<path d="M431.239 469.951L427.521 469.788C426.445 469.764 425.409 469.256 424.587 468.351C423.642 467.252 422.827 465.354 423.356 462.161C423.356 462.161 415.047 459.7 412.903 461.327C410.758 462.954 411.807 471.951 417.815 474.154C423.699 476.304 445.634 479.463 451.949 478.175L452.349 478.08C458.061 476.548 452.349 465.822 452.349 465.822C445.563 468.865 438.409 470.264 431.239 469.951Z" fill="#BEBED0"/>
<path opacity="0.1" d="M485.23 361.663C481.673 363.284 476.449 365.433 473.583 365.521C473.286 365.536 472.989 365.518 472.695 365.467C470.69 365.107 464.495 365.684 458.814 366.348C456.534 366.613 454.343 366.891 452.53 367.135C449.83 367.501 447.971 367.765 447.971 367.765V365.467C449.238 364.328 450.708 363.067 452.286 361.792C459.224 356.185 468.348 350.463 472.72 354.633C478.874 350.755 485.116 348.91 486.887 355.792C487.095 356.667 486.347 358.951 485.23 361.663Z" fill="black"/>
<path d="M502.3 308.191C502.201 311.628 501.214 320.55 494.141 329.568C485.126 341.059 488.949 357.562 488.949 357.562C488.949 357.562 478.199 363.074 473.562 363.223C473.265 363.238 472.968 363.219 472.674 363.168C469.89 362.66 458.84 363.996 452.489 364.836C449.788 365.202 447.929 365.467 447.929 365.467V316.652L497.745 300.862L502.258 306.726C502.297 307.213 502.311 307.702 502.3 308.191Z" fill="#5C5C8E"/>
<g opacity="0.1">
<path opacity="0.1" d="M448.771 364.863L447.95 364.979V365.494C447.95 365.494 449.809 365.229 452.51 364.863C457.069 364.26 464.033 363.412 468.639 363.162C465.45 362.782 454.919 364.05 448.771 364.863Z" fill="black"/>
<path opacity="0.1" d="M502.279 306.753L497.766 300.882L494.759 301.865L498.54 306.781C498.565 307.27 498.565 307.762 498.54 308.252C498.441 311.682 497.455 320.611 490.382 329.629C481.367 341.114 485.189 357.623 485.189 357.623C485.189 357.623 476.293 362.179 471.199 363.121C471.685 363.119 472.17 363.153 472.653 363.223C472.947 363.276 473.244 363.297 473.541 363.284C478.178 363.135 488.928 357.623 488.928 357.623C488.928 357.623 485.085 341.114 494.121 329.629C501.193 320.611 502.18 311.682 502.279 308.252C502.305 307.753 502.305 307.252 502.279 306.753Z" fill="black"/>
</g>
<path d="M402.751 273.709C402.751 273.709 387.691 260.068 386.585 272.353C385.479 284.638 402.751 282.882 402.751 282.882V273.709Z" fill="#A5636D"/>
<path d="M428.715 264.664C428.715 264.664 420.568 271.702 416.06 271.268C416.06 271.268 403.742 273.424 402.309 272.346C400.876 271.268 400.003 287.939 400.003 287.939L420.256 286.075L433.238 283.485C433.238 283.485 439.73 278.319 439.73 273.865C439.73 269.41 428.715 264.664 428.715 264.664Z" fill="#F7CDDD"/>
<path opacity="0.05" d="M428.715 264.664C428.715 264.664 420.568 271.702 416.06 271.268C416.06 271.268 403.742 273.424 402.309 272.346C400.876 271.268 400.003 287.939 400.003 287.939L420.256 286.075L433.238 283.485C433.238 283.485 439.73 278.319 439.73 273.865C439.73 269.41 428.715 264.664 428.715 264.664Z" fill="black"/>
<path d="M416.766 300.163C416.766 300.163 398.451 299.174 402.553 310.333C406.656 321.493 420.536 307.947 420.536 307.947L416.766 300.163Z" fill="#A5636D"/>
<path d="M435.191 276.441C435.191 276.441 420.344 261.939 422.437 244.277C424.53 226.616 435.191 257.796 435.191 257.796V276.441Z" fill="#5C5C8E"/>
<path d="M431.089 196.371C431.083 202.725 429.19 208.828 425.807 213.395C424.984 214.518 424.076 215.528 423.097 216.412C421.227 218.114 419.142 219.372 416.938 220.128C416.062 220.413 415.172 220.619 414.274 220.745C413.63 220.826 412.981 220.873 412.321 220.873C410.215 220.889 408.123 220.43 406.136 219.517C402.884 218.035 400.008 215.414 397.821 211.939C395.634 208.465 394.222 204.272 393.739 199.819C393.256 195.367 393.721 190.827 395.083 186.697C396.445 182.566 398.651 179.005 401.46 176.402C404.268 173.799 407.572 172.256 411.008 171.942C414.443 171.627 417.879 172.553 420.939 174.618C423.999 176.683 426.564 179.807 428.354 183.649C430.145 187.49 431.091 191.901 431.089 196.398V196.371Z" fill="#A5636D"/>
<path opacity="0.1" d="M502.3 308.191C500.617 308.598 498.54 309.33 498.54 310.469C498.54 312.388 475.078 322.727 475.078 322.727C475.078 322.727 475.956 325.398 473.614 329.995C471.272 334.591 452.203 361.006 452.203 361.006L452.265 361.792L452.51 364.836L453.673 379.386C453.673 379.386 446.34 375.942 443.993 376.321C443.235 376.45 442.435 375.813 441.651 374.898C441.941 373.157 442.468 371.499 443.209 370.002C443.209 370.002 445.11 368.05 447.976 365.467V316.652L497.792 300.862L502.305 306.726C502.328 307.214 502.327 307.703 502.3 308.191Z" fill="black"/>
<path d="M504.408 305.492C504.408 305.492 498.54 306.252 498.54 308.17C498.54 310.089 475.078 320.428 475.078 320.428C475.078 320.428 475.956 323.1 473.614 327.696C471.272 332.293 452.203 358.714 452.203 358.714L453.673 377.087C453.673 377.087 446.34 373.643 443.993 374.023C442.954 374.192 441.786 372.931 440.825 371.46C440.031 370.233 439.324 368.915 438.712 367.521C438.712 367.521 441.355 352.965 437.834 349.521C434.313 346.076 441.646 320.808 441.646 320.808C441.646 320.808 444.959 302.841 443.983 295.133C443.922 294.617 443.828 294.109 443.702 293.614C443.702 293.56 443.676 293.499 443.661 293.445C441.584 286.082 419.067 224.29 419.067 224.29C419.081 222.538 419.175 220.788 419.347 219.05C419.394 218.568 419.456 218.066 419.524 217.558C419.638 216.644 419.79 215.738 419.981 214.846C420.1 214.274 420.242 213.711 420.407 213.158C421.102 210.826 422.167 209.029 423.756 208.988C423.756 208.988 425.516 206.446 429.645 205.754C432.667 205.239 436.983 205.754 442.825 208.988C456.602 216.636 459.832 217.029 459.832 217.029L466.754 228.894L468.177 231.328C473.392 240.209 478.114 249.567 482.307 259.329C484.612 264.752 487.879 271.051 491.794 274.841C499.714 282.522 504.408 305.492 504.408 305.492Z" fill="#F7CDDD"/>
<path opacity="0.1" d="M453.008 261.22C453.008 261.22 472.586 267.539 480.172 283.471L453.008 261.22Z" fill="black"/>
<path opacity="0.1" d="M459.058 289.214C459.058 289.214 462.76 321.669 461.732 324.11C460.704 326.551 459.058 289.214 459.058 289.214Z" fill="black"/>
<path opacity="0.1" d="M457.734 305.872C456.311 308.306 450.531 327.12 450.531 327.12L452.198 358.714L453.668 377.087C453.668 377.087 446.34 373.643 443.993 374.023C442.954 374.192 441.781 372.931 440.825 371.46C442.347 360.701 445.603 338.185 446.19 337.751C446.963 337.175 450.926 319.086 451.133 314.021C451.341 308.957 456.846 297.668 456.846 297.668C456.846 297.668 459.167 303.438 457.734 305.872Z" fill="black"/>
<path opacity="0.1" d="M452.203 274.861C451.84 276.292 451.279 284.624 451.279 284.624C450.874 291.96 446.605 294.36 443.983 295.133C443.922 294.617 443.828 294.109 443.702 293.614C441.942 287.112 419.067 224.317 419.067 224.317C419.091 221.132 419.398 217.96 419.981 214.866C424.961 212.954 432.844 215.897 432.844 215.897C435.123 215.504 442.56 234.806 442.56 234.806C442.56 234.806 447.514 249.586 448.059 251.6C448.604 253.613 448.059 256.915 448.277 258.067C448.495 259.22 450.811 260.21 451.139 261.796C451.466 263.383 451.253 266.542 451.471 267.105C451.689 267.668 452.572 273.424 452.203 274.861Z" fill="black"/>
<path d="M450.443 273.709C450.079 275.146 449.518 283.472 449.518 283.472C449.186 289.573 446.174 292.285 443.661 293.445C442.528 293.973 441.341 294.282 440.14 294.36L436.603 298.374L420.272 314.069C420.272 314.069 414.185 299.377 415.837 299.296C417.488 299.214 427.012 288.773 427.012 288.773C429.925 286.739 432.844 279.96 434.199 276.475C434.121 276.059 434.062 275.638 434.023 275.214C433.436 268.712 421.118 243.816 421.118 243.816C421.118 243.816 416.356 236.501 414.502 222.948C414.45 222.636 414.414 222.317 414.367 221.992C414.315 221.57 414.283 221.144 414.274 220.717C414.05 215.504 416.958 213.605 420.407 213.158C422.207 212.971 424.019 213.044 425.807 213.375C427.589 213.668 429.354 214.121 431.089 214.731C432.563 214.473 436.198 222.48 438.582 228.155C439.865 231.233 440.789 233.633 440.789 233.633C440.789 233.633 445.743 248.42 446.288 250.427C446.834 252.433 446.288 255.749 446.506 256.895C446.725 258.04 449.041 259.044 449.368 260.63C449.695 262.217 449.482 265.376 449.7 265.939C449.918 266.502 450.811 272.271 450.443 273.709Z" fill="#F7CDDD"/>
<path opacity="0.1" d="M469.387 240.582C466.271 244.738 461.239 244.752 457.199 242.616C453.159 240.481 449.736 236.657 445.992 233.68C443.562 231.741 440.986 230.155 438.592 228.155C438.239 227.857 437.896 227.558 437.554 227.246C434.791 224.697 432.397 221.423 429.536 219.111C427.622 217.449 425.393 216.51 423.097 216.399C422.039 216.386 420.992 216.673 420.027 217.239C419.849 217.334 419.675 217.445 419.508 217.572C418.566 218.277 417.694 219.131 416.912 220.114C416.102 221.063 415.328 222.073 414.476 222.962C414.424 222.65 414.388 222.331 414.341 222.006C414.289 221.584 414.257 221.158 414.248 220.731C413.604 220.812 412.955 220.86 412.295 220.86C410.189 220.876 408.097 220.417 406.11 219.504C406.11 219.402 406.11 219.3 406.064 219.199C405.363 214.372 404.095 209.26 401.12 206.548C399.396 204.975 396.644 204.331 394.255 203.158C393.427 199.396 393.302 195.429 393.889 191.591C394.477 187.753 395.76 184.154 397.631 181.096C399.503 178.038 401.909 175.611 404.647 174.016C407.385 172.421 410.375 171.706 413.368 171.93C416.362 172.155 419.27 173.312 421.85 175.305C424.43 177.299 426.607 180.07 428.198 183.388C429.79 186.705 430.749 190.472 430.996 194.373C431.243 198.274 430.771 202.195 429.619 205.809C432.641 205.293 436.957 205.809 442.799 209.043C456.576 216.69 459.806 217.083 459.806 217.083L466.728 228.948C465.98 230.44 465.134 231.911 465.056 233.653C464.926 236.847 467.309 239.077 469.387 240.582Z" fill="black"/>
<path d="M401.141 204.236C404.116 206.948 405.383 212.053 406.09 216.873C406.308 218.378 406.515 219.965 407.222 221.158C408.78 223.829 411.978 223.077 414.04 221.158C416.102 219.239 417.727 216.331 420.028 214.975C423.081 213.171 426.674 214.487 429.536 216.826C432.397 219.165 434.791 222.439 437.554 224.962C440.228 227.423 443.209 229.179 445.992 231.396C449.736 234.372 453.159 238.216 457.199 240.331C461.239 242.447 466.286 242.44 469.381 238.298C467.304 236.792 464.921 234.569 465.082 231.341C465.243 228.114 468.119 225.707 467.927 222.399C467.735 219.09 464.754 217.795 462.615 216.168C458.149 212.778 456.243 205.32 455.288 198.439C454.545 193.056 453.932 187.042 450.853 183.584C448.864 181.361 446.179 180.635 444.175 178.432C442.279 176.337 441.225 173.17 440.02 170.248C438.031 165.387 435.419 160.865 431.966 157.957C428.513 155.048 424.12 153.889 420.329 155.882C418.875 156.634 417.55 157.801 416.117 158.594C412.544 160.628 408.458 160.336 404.921 162.458C400.564 165.075 397.734 170.852 395.143 176.337C392.951 181.035 388.605 189.32 389.836 195.422C391.061 201.625 397.911 201.293 401.141 204.236Z" fill="#4C3E42"/>
<g opacity="0.1">
<path opacity="0.1" d="M467.922 222.026C467.906 221.774 467.873 221.524 467.823 221.28C467.034 222.901 466.053 224.473 465.959 226.372C465.939 226.811 465.967 227.252 466.042 227.68C466.92 225.857 468.047 224.141 467.922 222.026Z" fill="black"/>
<path opacity="0.1" d="M458.076 235.382C454.036 233.267 450.619 229.423 446.875 226.446C444.086 224.229 441.106 222.473 438.431 220.012C435.669 217.463 433.275 214.188 430.413 211.876C427.552 209.565 423.964 208.222 420.905 210.019C418.605 211.375 416.984 214.256 414.918 216.209C412.851 218.161 409.683 218.921 408.099 216.209C407.393 215.016 407.185 213.429 406.967 211.924C406.266 207.103 404.994 201.998 402.024 199.286C398.788 196.337 391.939 196.669 390.698 190.473C390.491 189.364 390.436 188.216 390.537 187.083C389.742 189.849 389.332 192.629 389.815 195.049C391.061 201.273 397.911 200.941 401.141 203.863C404.116 206.575 405.383 211.687 406.09 216.507C406.308 218.012 406.515 219.599 407.216 220.792C408.774 223.463 411.973 222.711 414.04 220.758C416.107 218.805 417.722 215.931 420.028 214.575C423.081 212.778 426.675 214.093 429.536 216.433C432.397 218.772 434.791 222.046 437.554 224.568C440.228 227.036 443.209 228.785 445.992 231.002C449.736 233.986 453.159 237.83 457.199 239.945C461.239 242.06 466.286 242.047 469.381 237.911C468.581 237.35 467.821 236.694 467.112 235.952C464.297 237.301 460.938 236.881 458.076 235.382Z" fill="black"/>
</g>
<path d="M366.166 281.756L407.71 261.498C408.196 261.26 408.713 261.15 409.231 261.173C409.75 261.196 410.26 261.353 410.732 261.633C411.204 261.914 411.629 262.314 411.983 262.81C412.337 263.305 412.612 263.887 412.794 264.522C412.975 265.157 413.059 265.832 413.04 266.509C413.022 267.186 412.902 267.852 412.686 268.468C412.47 269.085 412.164 269.639 411.784 270.101C411.404 270.563 410.959 270.922 410.472 271.159L368.929 291.424L360.028 290.258L366.166 281.756Z" fill="#5C5C8E"/>
<path opacity="0.1" d="M411.532 262.895C411.898 264.178 411.86 265.598 411.424 266.844C410.989 268.09 410.193 269.059 409.211 269.539L367.667 289.797L360.978 288.923L360.018 290.278L368.918 291.445L410.462 271.18C410.948 270.943 411.394 270.583 411.774 270.122C412.154 269.66 412.46 269.105 412.676 268.489C412.891 267.872 413.012 267.207 413.03 266.529C413.049 265.852 412.965 265.177 412.783 264.542C412.479 263.473 411.911 262.567 411.168 261.966C411.311 262.26 411.433 262.571 411.532 262.895Z" fill="white"/>
<path d="M366.166 281.756L368.934 291.424L361.627 290.468L360.028 290.258L362.214 287.234L366.166 281.756Z" fill="#EFC8C4"/>
<path d="M362.209 287.234C362.381 287.398 362.526 287.606 362.635 287.845C362.704 287.985 362.74 288.149 362.74 288.316C362.74 288.483 362.704 288.646 362.635 288.787C362.515 288.938 362.379 289.063 362.23 289.16C362.061 289.305 361.92 289.498 361.818 289.725C361.715 289.951 361.654 290.206 361.638 290.468L360.038 290.258L362.209 287.234Z" fill="#727A9C"/>
<path d="M329.904 177.001L322.898 172.54C322.798 172.476 322.709 172.388 322.635 172.279C322.562 172.17 322.505 172.044 322.469 171.906C322.433 171.769 322.418 171.624 322.425 171.479C322.432 171.334 322.46 171.192 322.509 171.062L323.252 169.069C323.3 168.938 323.367 168.82 323.451 168.724C323.534 168.627 323.631 168.553 323.736 168.506C323.841 168.458 323.953 168.439 324.064 168.448C324.175 168.458 324.284 168.496 324.384 168.56L329.104 171.564L334.032 158.37C334.131 158.107 334.305 157.905 334.517 157.808C334.729 157.712 334.962 157.729 335.164 157.855L336.691 158.831C336.791 158.894 336.881 158.982 336.955 159.091C337.029 159.2 337.086 159.326 337.122 159.464C337.158 159.601 337.173 159.747 337.166 159.892C337.159 160.037 337.13 160.179 337.08 160.309L331.036 176.493C330.987 176.623 330.919 176.74 330.836 176.836C330.752 176.932 330.655 177.006 330.55 177.053C330.445 177.1 330.334 177.12 330.223 177.111C330.112 177.102 330.004 177.065 329.904 177.001Z" fill="#3ACC6C"/>
<path d="M345.207 234.067L338.202 229.606C338.102 229.542 338.013 229.453 337.939 229.345C337.866 229.236 337.809 229.109 337.773 228.972C337.737 228.835 337.722 228.69 337.728 228.545C337.735 228.4 337.764 228.258 337.813 228.128L338.555 226.134C338.655 225.871 338.83 225.669 339.043 225.574C339.257 225.478 339.49 225.497 339.692 225.626L344.408 228.629L349.331 215.422C349.429 215.159 349.603 214.957 349.815 214.861C350.027 214.764 350.26 214.781 350.463 214.907L351.984 215.883C352.085 215.946 352.174 216.035 352.249 216.143C352.323 216.252 352.38 216.378 352.416 216.515C352.453 216.653 352.469 216.798 352.462 216.943C352.456 217.088 352.427 217.231 352.379 217.361L346.334 233.545C346.234 233.808 346.058 234.008 345.845 234.103C345.633 234.198 345.4 234.18 345.197 234.053L345.207 234.067Z" fill="#3ACC6C"/>
<path d="M338.337 205.937L331.332 201.476C331.13 201.348 330.975 201.12 330.901 200.843C330.828 200.566 330.84 200.263 330.937 199.998L331.685 198.005C331.733 197.874 331.801 197.757 331.884 197.66C331.967 197.563 332.064 197.489 332.17 197.442C332.275 197.395 332.386 197.375 332.497 197.384C332.609 197.394 332.717 197.432 332.817 197.496L337.537 200.5L342.465 187.286C342.514 187.156 342.582 187.039 342.665 186.943C342.749 186.847 342.846 186.773 342.951 186.726C343.056 186.678 343.167 186.659 343.278 186.668C343.389 186.677 343.498 186.714 343.598 186.778L345.124 187.747C345.325 187.878 345.479 188.108 345.552 188.385C345.625 188.663 345.611 188.967 345.514 189.232L339.464 205.429C339.415 205.559 339.347 205.676 339.264 205.772C339.181 205.868 339.084 205.942 338.979 205.989C338.873 206.036 338.762 206.056 338.651 206.047C338.54 206.038 338.432 206.001 338.332 205.937H338.337Z" fill="#3ACC6C"/>
<path d="M351.854 259.83L344.849 255.369C344.749 255.305 344.66 255.217 344.586 255.108C344.513 254.999 344.456 254.873 344.42 254.735C344.384 254.598 344.369 254.453 344.375 254.308C344.382 254.163 344.411 254.022 344.46 253.891L345.202 251.898C345.251 251.767 345.319 251.651 345.402 251.555C345.485 251.458 345.582 251.385 345.687 251.337C345.793 251.29 345.904 251.271 346.015 251.279C346.126 251.288 346.234 251.326 346.334 251.389L351.055 254.393L355.983 241.199C356.082 240.935 356.258 240.733 356.47 240.637C356.683 240.541 356.917 240.557 357.12 240.684L358.642 241.66C358.742 241.723 358.832 241.812 358.906 241.92C358.98 242.029 359.037 242.156 359.073 242.293C359.109 242.431 359.124 242.576 359.117 242.721C359.11 242.866 359.08 243.008 359.031 243.138L352.992 259.322C352.891 259.584 352.715 259.785 352.503 259.88C352.29 259.975 352.057 259.957 351.854 259.83Z" fill="#3ACC6C"/>
<path d="M89.9525 434.994C89.9525 434.994 93.0423 440.269 88.5296 448.228C84.0169 456.188 80.2884 462.913 81.7788 467.89C81.7788 467.89 88.5919 453.103 94.1328 452.9C99.6737 452.696 96.049 443.889 89.9525 434.994Z" fill="#3ACC6C"/>
<path opacity="0.1" d="M89.9525 434.994C90.223 435.503 90.4363 436.06 90.586 436.648C95.9919 444.947 98.8948 452.689 93.6758 452.92C88.8308 453.096 83.0199 464.405 81.6334 467.259C81.6751 467.49 81.7289 467.716 81.7943 467.937C81.7943 467.937 88.6075 453.15 94.1484 452.947C99.6893 452.744 96.049 443.889 89.9525 434.994Z" fill="black"/>
<path d="M95.6959 441.72C95.6959 443.57 95.5349 445.109 95.3376 445.109C95.1402 445.109 94.9844 443.604 94.9844 441.72C94.9844 439.835 95.1818 440.736 95.3791 440.736C95.5764 440.736 95.6959 439.862 95.6959 441.72Z" fill="#FFD037"/>
<path d="M97.664 443.93C96.4177 444.818 95.3272 445.36 95.2337 445.13C95.1403 444.899 96.075 444.004 97.3109 443.096C98.5469 442.187 98.0639 442.852 98.1574 443.096C98.2509 443.34 98.9156 443.042 97.664 443.93Z" fill="#FFD037"/>
<path d="M73.6362 434.994C73.6362 434.994 70.5516 440.269 75.0643 448.228C79.5769 456.188 83.3003 462.913 81.8151 467.89C81.8151 467.89 75.0071 453.103 69.461 452.9C63.915 452.696 67.5397 443.889 73.6362 434.994Z" fill="#3ACC6C"/>
<path opacity="0.1" d="M73.6362 434.994C73.3689 435.505 73.1574 436.061 73.0079 436.648C67.5968 444.947 64.6991 452.689 69.918 452.92C74.7579 453.096 80.5688 464.405 81.9605 467.259C81.917 467.49 81.8615 467.716 81.7943 467.937C81.7943 467.937 74.9864 453.089 69.4299 452.886C63.8734 452.683 67.5397 443.889 73.6362 434.994Z" fill="black"/>
<path d="M67.8979 441.72C67.8979 443.57 68.0537 445.109 68.2511 445.109C68.4484 445.109 68.6094 443.604 68.6094 441.72C68.6094 439.835 68.4121 440.736 68.2147 440.736C68.0174 440.736 67.8979 439.862 67.8979 441.72Z" fill="#FFD037"/>
<path d="M65.9247 443.93C67.1762 444.818 68.2615 445.36 68.355 445.13C68.4484 444.899 67.5137 444.004 66.2778 443.096C65.0418 442.187 65.5196 442.852 65.4261 443.096C65.3327 443.34 64.6783 443.042 65.9247 443.93Z" fill="#FFD037"/>
<path opacity="0.1" d="M81.7995 508.216C99.6356 508.216 114.095 505.32 114.095 501.748C114.095 498.176 99.6356 495.28 81.7995 495.28C63.9635 495.28 49.5045 498.176 49.5045 501.748C49.5045 505.32 63.9635 508.216 81.7995 508.216Z" fill="#17252A"/>
<path d="M98.417 460.771L98.2612 462.418L98.0483 464.744L97.9548 465.713L97.7419 468.039L97.6432 469.008L97.4303 471.334L94.9585 497.775C94.7352 500.135 91.7804 501.979 88.2076 501.979H75.3758C71.8083 501.979 68.8587 500.135 68.625 497.775L66.1531 471.334L65.935 469.008L65.8467 468.039L65.6234 465.713L65.5352 464.744L65.3171 462.418L65.1613 460.771C65.0418 459.415 66.6361 458.303 68.6561 458.303H94.9273C96.9526 458.303 98.5468 459.435 98.417 460.771Z" fill="#65617D"/>
<path d="M98.2664 462.418L98.0483 464.744H65.5456L65.3326 462.418H98.2664Z" fill="#9D9CB5"/>
<path d="M97.96 465.713L97.7419 468.039H65.8571L65.639 465.713H97.96Z" fill="#9D9CB5"/>
<path d="M97.6485 469.008L97.4303 471.334H66.1635L65.9454 469.008H97.6485Z" fill="#9D9CB5"/>
</g>
<defs>
<linearGradient id="paint0_linear" x1="445.473" y1="478.473" x2="445.473" y2="151.272" gradientUnits="userSpaceOnUse">
<stop stop-color="#808080" stop-opacity="0.25"/>
<stop offset="0.54" stop-color="#808080" stop-opacity="0.12"/>
<stop offset="1" stop-color="#808080" stop-opacity="0.1"/>
</linearGradient>
<clipPath id="clip0">
<rect width="600" height="540" fill="white"/>
</clipPath>
</defs>
</svg>
